<?xml version="1.0" encoding="UTF-8"?>
<svg id="Layer_2" data-name="Layer 2" xmlns="http://www.w3.org/2000/svg" viewBox="0 0 40.8 40.8">
  <defs>
    <style>
      .cls-1 {
        fill: #feeadc;
      }

      .cls-2, .cls-3 {
        fill: #fff;
      }

      .cls-3 {
        stroke: #fff;
        stroke-linecap: round;
        stroke-linejoin: round;
        stroke-width: .5px;
      }

      .cls-4 {
        fill: #af529f;
      }

      .cls-5 {
        fill: #e71b42;
      }

      .cls-6 {
        fill: #fcca46;
      }

      .cls-7 {
        fill: #852b24;
      }

      .cls-8 {
        fill: #7fcbb4;
      }

      .cls-9 {
        fill: #f4aacb;
      }
    </style>
  </defs>
  <g id="Layer_1-2" data-name="Layer 1">
    <g>
      <circle class="cls-2" cx="20.4" cy="20.4" r="20.4"/>
      <circle class="cls-8" cx="20.4" cy="20.4" r="19.19"/>
      <g>
        <path class="cls-3" d="M17.39,25.48c-.8,0-1.14-.88-1.22-1.41-.1-.74.3-1.13.68-1.24h.02s.02,0,.02,0c.07-.02.15-.03.22-.03.26,0,1.12.19,1.43.77.18.33.16.71-.04,1.02-.04.05-.07.1-.11.14l.08.26-.61.35c-.15.09-.32.13-.49.13Z"/>
        <path class="cls-3" d="M23.42,25.48c-.13,0-.25-.02-.36-.07l-.58-.24.03-.4c-.16-.16-.46-.49-.34-.99.15-.63.81-.81,1.3-.94l.35-.09.31.18c.17.1.7.49.45,1.43-.19.7-.62,1.12-1.15,1.12Z"/>
        <path class="cls-3" d="M17.08,26.46c-.25,0-.47-.08-.6-.13h-.03c-.59-.22-1.57-.92-1.8-1.73l-.02-.09v-.09c-.02-.13-.05-.54.25-.85.17-.18.41-.29.67-.29.55,0,.84.44,1.06.8.02.03.04.06.05.08.18.19.43.32.7.38l.58.11.11.58c.09.44-.09.74-.2.87-.19.23-.47.36-.77.36Z"/>
        <path class="cls-3" d="M23.71,26.44c-.11,0-.21-.01-.31-.03l-.32-.07-.2-.26c-.17-.23-.23-.52-.16-.8.12-.48.53-.65.85-.79.17-.07.51-.22.58-.34l.03-.04h0s.01-.03.02-.04c.16-.27.45-.79,1.05-.79.32,0,.62.17.8.45l.15.23v.27c-.05,1.1-1.5,2.21-2.5,2.21Z"/>
        <path class="cls-3" d="M19.41,27.67c-.49,0-.91-.34-.99-.82-.07-.42.14-.82.52-1.02l.04-.03c.65-.44.97-.66,1.43-.66.4,0,.68.18.96.36.14.09.31.2.55.33l.51.27-.09,1.16-.35.23c-.17.11-.36.17-.57.17h0c-.41,0-.73-.22-1.01-.43h0c-.33.22-.52.35-.76.41h-.02s-.02,0-.02,0c-.06.01-.12.02-.18.02Z"/>
        <path class="cls-3" d="M22.46,23.91c-.19,0-.37-.04-.54-.12l-.29-.14-.13-.29c-.21-.46-.18-.96.09-1.36.63-.98,2.31-1.01,2.5-1.01.13,0,.24,0,.34.02l.37.05.22.31c.34.47.24.87.15,1.07-.24.54-.78.6-1.02.62-.03,0-.06,0-.08,0h-.03c-.08.02-.27.18-.38.28-.3.25-.68.56-1.21.56Z"/>
        <path class="cls-3" d="M18.36,23.91c-.54,0-.91-.3-1.22-.54-.27-.21-.43-.34-.64-.34,0,0-.02,0-.03,0l-.63.03-.22-.59c-.13-.34-.09-.7.11-.98.16-.23.48-.5,1.13-.5.61,0,2.09.32,2.51,1.26.2.46.12.97-.24,1.36l-.18.2-.26.06c-.11.03-.22.04-.32.04Z"/>
        <path class="cls-3" d="M17.39,25.48c-.81,0-1.14-.89-1.22-1.41-.1-.74.31-1.12.69-1.23h.02s.02,0,.02,0c.07-.02.15-.03.22-.03.26,0,1.12.19,1.43.77.18.33.16.71-.04,1.02-.04.05-.07.1-.11.14l.08.26-.61.35c-.15.09-.32.13-.48.13h0Z"/>
        <path class="cls-3" d="M17.52,26.13c-.23,0-.45-.03-.65-.08l-.08-.02-.07-.03c-1.03-.49-1.83-2.03-2-2.91l-.09-.49.37-.33c.28-.25.56-.3.75-.3.21,0,.38.06.53.14.12-.05.25-.07.39-.07.07,0,.15,0,.23.02l.64.12.02.16s.05,0,.08,0c.68,0,.92.63,1,.84,0,0,0,0,0,0,.06.04.14.09.2.13.57.35,1.43.87,1.31,1.77l-.03.22-.13.18c-.19.26-.48.41-.8.41h0c-.09,0-.18-.01-.27-.04-.42.18-.91.28-1.38.28Z"/>
        <path class="cls-3" d="M23.42,25.48c-.13,0-.25-.02-.37-.07l-.58-.24.03-.4c-.16-.16-.46-.49-.34-.99.15-.63.81-.81,1.3-.94l.35-.09.31.18c.17.1.7.49.45,1.43-.19.7-.62,1.12-1.15,1.12h0Z"/>
        <path class="cls-3" d="M23.27,26.13c-.43,0-.91-.1-1.37-.29-.08.02-.17.04-.28.04-.16,0-.33-.04-.48-.12h-.02s-.02-.02-.02-.02c-.28-.17-.46-.46-.47-.79,0-.19-.03-.7,1.03-1.46.11-.08.23-.15.37-.22.04-.02.1-.06.15-.09.24-.75.75-.86,1.04-.86.06,0,.12,0,.18.01h.07c.24-.24.54-.3.74-.3.07,0,.14,0,.2.02l.17.03.24-.16.33.05c.39.06.7.3.84.64.25.6-.02,1.3-1,2.59-.35.6-.97.92-1.75.92Z"/>
        <path class="cls-3" d="M10.76,24.33c-.32-.33-.44-.81-.33-1.32l.44-1.99,1.73,2.56-1.14,1.46-.7-.72Z"/>
        <path class="cls-3" d="M28.64,24.18c-.38-.62-.13-1.08.02-1.29.14-.34.46-.57.85-.57.08,0,.15,0,.23.03l.68.15v.7s0,.04,0,.06c0,.22.03.9-.63,1.24l-.72.38-.43-.7Z"/>
        <polygon class="cls-3" points="10.09 23.44 10.09 19.95 12.14 22.81 11.79 23.74 10.09 23.44"/>
        <path class="cls-3" d="M10.14,22.63c-.41,0-.77-.25-.96-.66-.09-.19-.14-.42-.14-.63,0-.66.48-1.01.94-1.01v1.75c.05,0,.11,0,.16-.01v.56s0,0,0,0Z"/>
        <path class="cls-3" d="M27.79,21.06c-.15-1.32-.51-2.59-1.08-3.79l1.44-.96c1.01,1.12,1.81,2.49,2.41,4.07l.34.91-3,.78-.11-1.01Z"/>
        <path class="cls-3" d="M9.96,21.29l.29-.89c.48-1.44,1.29-2.83,2.4-4.13l1.46.94c-.64,1.38-.99,2.63-1.08,3.81l-.08,1.05-3-.78Z"/>
        <path class="cls-3" d="M15.52,14.63l.81-2.21h.64c.92,0,1.73.31,2.46.59.36.14.7.27,1.04.36l-.13,1.72c-1,.11-2.27.3-3.16.87l-.89.56-.76-1.88Z"/>
        <path class="cls-3" d="M23.66,16.08c-1-.6-1.95-.8-3.06-.93h-.03c-.3-.05-.54-.19-.69-.41-.14-.21-.19-.46-.14-.71l.11-.51.5-.15c.31-.09.63-.21.96-.34.73-.28,1.57-.61,2.5-.61h.18s.13.05.13.05c.46.16.58.53.77,1.15,0,.03.02.05.02.08.31.6.4.99.13,1.53-.04.07-.06.12-.08.25l-.21,1.27-1.1-.66Z"/>
        <path class="cls-3" d="M15.76,31.47c-.19-.65-.28-.69-.49-.77-.3-.12-.75-.31-1.19-.93l-.04-.06-.03-.07c-.06-.12-.24-.5-.46-2.11v-.03s0-.04,0-.04c0-.1-.03-.25-.05-.41-.08-.52-.17-1.12.06-1.64l.61-1.41.9,1.25c.54.75,1.32,1.34,2.08,1.9l.28.21.06.35c.21,1.24.21,2.48,0,3.68l-1.7.09Z"/>
        <path class="cls-3" d="M23.37,31.4c-.18-.88-.23-1.94-.14-3,.03-1.12.47-1.52,1.1-1.97.09-.07.19-.13.29-.21.25-.23.61-.62.81-.88,0,0,0-.01.01-.02.15-.27.43-.78,1.03-.78.42,0,.87.29.95.93v.05s0,.05,0,.05c.01,1.16-.24,2.91-.57,3.98l-.05.17-.12.14c-.47.54-.89.73-1.16.86-.21.09-.28.12-.44.75l-1.7-.05Z"/>
        <path class="cls-3" d="M14.96,34.26c-.09,0-.18-.01-.26-.04l-.22-.06-.16-.16c-1.72-1.76-2.81-5.27-2.92-9.38-.12-4.12.79-7.7,2.41-9.57l.26-.3h.4c.7,0,.97.69,1.1,1.03.1.26.22.62.23.84v.12s-.03.12-.03.12c-.06.21-.13.3-.49.72-.09.1-.22.26-.25.3-1.41,2-1.5,4.72-.23,6.95l.13.22v.25c-.08,1.54.22,3.28.91,5.32l.58,1.71-1.09-.39s.02.07.02.1l.03.12c.04.09.11.23.16.32.25.47.46.87.18,1.34-.16.27-.45.43-.76.43Z"/>
        <path class="cls-3" d="M19.41,27.45c-.49,0-.91-.34-.99-.82-.07-.42.14-.82.52-1.02l.05-.03c.64-.43.96-.65,1.43-.65.4,0,.68.18.96.36.14.09.31.2.55.33l.51.27-.09,1.16-.36.23c-.17.11-.36.17-.57.17h0c-.41,0-.73-.22-1.01-.43,0,0,0,0,0,0-.33.22-.52.35-.76.41h-.02s-.02,0-.02,0c-.06.01-.12.02-.18.02Z"/>
        <path class="cls-3" d="M23.71,26.44c-.11,0-.21-.01-.31-.03l-.34-.07-.2-.29c-.16-.23-.2-.52-.13-.79.13-.46.53-.63.85-.77.18-.08.5-.22.58-.34l.02-.04h0s.01-.03.02-.04c.16-.28.45-.79,1.05-.79.32,0,.62.17.8.45l.15.23v.27c-.05,1.1-1.5,2.21-2.5,2.21h0Z"/>
        <path class="cls-3" d="M17.08,26.46c-.25,0-.46-.08-.59-.13h-.03c-.59-.23-1.57-.92-1.8-1.73-.04-.13-.13-.57.15-.95.18-.23.45-.37.74-.37.15,0,.39.04.62.23l.13.1.08.14c.19.34.54.72.94.77l.62.09.12.61c.09.44-.09.74-.2.87-.19.23-.47.36-.78.36h0Z"/>
        <path class="cls-3" d="M23.27,26.13c-.43,0-.91-.1-1.37-.29-.08.02-.17.04-.28.04-.16,0-.33-.04-.48-.12h-.02s-.02-.02-.02-.02c-.28-.17-.46-.46-.47-.79,0-.19-.03-.7,1.03-1.46.11-.08.23-.15.37-.22.04-.02.1-.06.15-.09.24-.75.75-.86,1.04-.86.06,0,.12,0,.18.01h.07c.24-.24.54-.3.74-.3.07,0,.14,0,.2.02l.17.03.24-.16.33.05c.39.05.7.3.84.64.25.6-.02,1.3-1,2.59-.35.6-.97.92-1.75.92h0Z"/>
        <path class="cls-3" d="M17.52,26.13c-.23,0-.45-.03-.65-.08l-.08-.02-.07-.03c-1.03-.49-1.84-2.03-2-2.91l-.09-.49.37-.33c.28-.25.56-.3.75-.3.21,0,.38.06.53.14.12-.05.25-.07.39-.07.07,0,.15,0,.23.02l.64.12.02.16s.05,0,.08,0c.68,0,.92.63,1,.84,0,0,0,0,0,0,.06.04.14.09.2.12.58.35,1.44.88,1.31,1.79l-.03.22-.13.18c-.19.26-.48.41-.8.41-.09,0-.18-.01-.27-.04-.42.18-.91.28-1.38.28Z"/>
        <path class="cls-3" d="M22.46,23.92c-.19,0-.37-.04-.55-.13l-.29-.14-.13-.29c-.21-.46-.18-.96.09-1.36.63-.98,2.31-1.01,2.5-1.01.13,0,.24,0,.34.02l.37.05.22.3c.34.47.24.87.15,1.07-.24.54-.78.6-1.02.62-.03,0-.05,0-.08,0h-.03c-.07.02-.26.18-.38.28-.3.25-.68.56-1.21.56h0Z"/>
        <path class="cls-3" d="M18.36,23.91c-.54,0-.94-.32-1.22-.54-.26-.21-.42-.33-.63-.33,0,0-.02,0-.03,0l-.63.03-.22-.59c-.13-.34-.09-.7.11-.98.16-.23.48-.5,1.13-.5.61,0,2.09.32,2.51,1.26.2.46.12.97-.24,1.36l-.19.21-.27.06c-.1.02-.21.04-.31.04h0Z"/>
        <path class="cls-3" d="M20.28,29.36c-2.8,0-5.3-1.37-6.69-3.67l-.11-.19v-.22c-.04-.45.02-.9.08-1.33.04-.3.08-.59.08-.84l.04-2.47,1.1,1.41c.73-1,1.93-3.52,2.09-4.05l1.7.14c.03.25.06.53.09.82.1.97.22,2.22.67,3.01.03-.04.06-.08.08-.12.14-.21.27-.39.42-.53l.79-.73.61,1.03c.05.08.13.22.22.35.43-.77.61-2.29.72-3.23.02-.19.04-.36.06-.52l.43-3.31,1.25,3.09c.63,1.56,1.69,3.6,2.25,4.21l.82-.45.36,3.18-.11.23c-1.27,2.59-3.93,4.19-6.95,4.19Z"/>
        <path class="cls-3" d="M25.92,24.7c-.12-.24-.17-.53-.2-.86l-.34-.37c-.79-.86-1.42-1.86-1.93-2.89-.21,1.11-.62,2.2-1.33,2.92l-.62.63-1.04-1.04s-.04-.04-.06-.06c-.24.32-.44.54-.71.66l-.54.24-.43-.41c-.7-.68-1.15-1.74-1.38-2.88-.52,1.05-1.15,2.04-1.97,2.86l-.3.3c-.07.86-.11,1.34-.55,1.64l-.82.56-.46-.88c-1.25-2.42-1.14-5.27.29-7.62,1.45-2.38,4.01-3.86,6.68-3.86.79,0,1.59.13,2.36.37,2.11.65,3.86,2.18,4.8,4.2.95,2.04.99,4.39.11,6.45l-.75,1.76-.84-1.72Z"/>
        <path class="cls-3" d="M15.76,31.47c-.19-.65-.28-.69-.49-.77-.3-.12-.75-.31-1.19-.93l-.04-.06-.03-.07c-.06-.12-.24-.5-.46-2.11v-.04s0-.04,0-.04c0-.1-.03-.25-.05-.41-.08-.52-.17-1.12.06-1.64l.62-1.41.9,1.25c.54.75,1.32,1.34,2.08,1.9l.28.21.06.35c.21,1.24.21,2.48,0,3.68l-1.7.09Z"/>
        <path class="cls-3" d="M23.37,31.4c-.24-1.18-.19-2.37-.14-3,.03-1.12.47-1.52,1.1-1.97.09-.07.19-.13.29-.21.25-.23.61-.62.81-.88,0,0,0-.01.01-.02.15-.27.43-.78,1.03-.78.42,0,.87.29.95.93v.05s0,.05,0,.05c.01,1.16-.24,2.91-.57,3.98l-.05.17-.12.14c-.47.54-.89.73-1.16.86-.21.09-.28.13-.45.75l-1.7-.05Z"/>
        <path class="cls-3" d="M28.64,24.18c-.38-.62-.13-1.08.02-1.29.14-.34.46-.57.85-.57.08,0,.15,0,.23.03l.68.15v.7s0,.04,0,.06c0,.22.03.9-.63,1.24l-.72.38-.43-.7Z"/>
        <path class="cls-3" d="M10.76,24.33c-.32-.33-.44-.81-.33-1.32l.44-1.99,1.73,2.56-1.14,1.46-.7-.72Z"/>
        <polygon class="cls-3" points="10.09 23.44 10.09 19.95 12.14 22.81 11.79 23.74 10.09 23.44"/>
        <path class="cls-3" d="M10.14,22.63c-.41,0-.77-.25-.96-.66-.09-.19-.14-.42-.14-.63,0-.66.48-1.01.94-1.01v1.75c.05,0,.11,0,.16-.01v.56Z"/>
        <path class="cls-3" d="M20.28,29.36c-2.8,0-5.3-1.37-6.69-3.67l-.11-.19v-.22c-.04-.45.02-.9.08-1.33.04-.3.08-.59.08-.84l.04-2.5,1.1,1.43c.73-1,1.93-3.52,2.09-4.04l1.71.14c.03.25.06.53.09.81.1.97.22,2.22.67,3.01.03-.04.06-.08.08-.12.14-.21.27-.39.42-.53l.79-.73.61,1.03c.05.09.13.22.22.36.43-.77.61-2.29.72-3.23.02-.19.04-.37.06-.52l.43-3.3,1.25,3.08c.65,1.59,1.69,3.61,2.25,4.22l.82-.45.36,3.17-.11.23c-1.27,2.59-3.93,4.19-6.95,4.19Z"/>
        <path class="cls-3" d="M27.79,21.06c-.15-1.32-.51-2.59-1.08-3.79l1.44-.96c1.01,1.12,1.81,2.49,2.41,4.07l.34.91-3,.78-.11-1.01Z"/>
        <path class="cls-3" d="M9.96,21.29l.29-.89c.48-1.44,1.29-2.83,2.4-4.13l1.46.94c-.64,1.38-.99,2.63-1.08,3.81l-.08,1.05-3-.78Z"/>
        <path class="cls-3" d="M14.97,34.26c-.13,0-.27-.03-.38-.08l-.15-.07-.12-.12c-1.72-1.77-2.81-5.28-2.92-9.39-.11-4.12.79-7.69,2.41-9.56l.33-.39.5.1c.51.1.75.54.93,1.01.03.09.2.53.22.79v.15s-.03.15-.03.15c-.06.21-.13.3-.49.73-.09.1-.22.26-.25.3-1.41,2-1.5,4.72-.23,6.95l.13.22v.25c-.08,1.54.22,3.28.91,5.32l.59,1.72-1.09-.39s.02.07.02.1c.05.21.18.45.32.7.04.07.07.13.11.2l.04.07.02.07c.09.27.04.57-.13.8-.17.23-.44.37-.74.37h0Z"/>
        <path class="cls-3" d="M25.92,24.7c-.12-.24-.17-.53-.2-.86l-.34-.37c-.79-.86-1.42-1.86-1.93-2.89-.21,1.11-.62,2.19-1.34,2.92l-.62.63-1.04-1.04s-.04-.04-.06-.06c-.24.32-.44.54-.71.66l-.54.24-.43-.41c-.7-.68-1.15-1.74-1.38-2.88-.52,1.05-1.15,2.04-1.97,2.86l-.3.3c-.07.87-.11,1.35-.56,1.65l-.81.54-.45-.87c-1.25-2.42-1.14-5.27.29-7.62,1.45-2.38,4.01-3.86,6.68-3.86.79,0,1.59.13,2.36.37,2.11.65,3.86,2.18,4.8,4.2.95,2.04.99,4.39.11,6.45l-.75,1.76-.84-1.73Z"/>
        <path class="cls-3" d="M23.66,16.08c-1-.6-1.95-.8-3.06-.93h-.03c-.3-.05-.54-.19-.69-.41-.14-.21-.2-.47-.14-.71l.11-.51.5-.15c.31-.09.63-.21.96-.34.73-.28,1.57-.61,2.5-.61h.18s.13.05.13.05c.46.16.58.53.77,1.15,0,.03.02.05.02.08.31.6.4.99.13,1.53-.04.07-.06.12-.08.25l-.21,1.27-1.1-.66Z"/>
        <path class="cls-3" d="M15.52,14.63l.81-2.21h.64c.92,0,1.73.31,2.46.59.36.14.7.27,1.04.36l-.13,1.72c-1,.11-2.27.3-3.16.87l-.89.56-.76-1.88Z"/>
        <path class="cls-3" d="M28.29,35.58c-.36,0-.7-.18-1.02-.55-.16-.18-.3-.39-.42-.62-.06-.11-.21-.14-.31-.05-.33.32-.69.51-1.1.51-.25,0-.49-.08-.7-.22l-.14-.1s-.05-.04-.06-.07l-.08-.16c-.3-.6.09-1.18.37-1.59.03-.05.07-.11.09-.13.03-.06.06-.12.09-.18,0,0,0,0,0,0l-.04.04c-.27.26-.56.31-.75.31-.33,0-.64-.16-.84-.44-.21-.29-.43-.83-.44-2.6,0,0,0-.09,0-.24,0-.13-.13-.23-.25-.19-.78.24-1.59.36-2.41.36-.73,0-1.45-.1-2.15-.28-.12-.03-.25.07-.24.19.03,1.8-.2,2.65-.77,3.07l-.22.16s-.09.04-.14.04l-.27-.03s-.07,0-.1-.02c-.17-.04-.3.14-.22.29.05.09.1.18.16.28l.11.2s.02.06.03.09v.16c.03.29-.07.57-.26.77-.2.21-.48.33-.8.33-.22,0-.46-.06-.66-.15l-.05-.02-.04-.03c-.14-.09-.26-.19-.39-.31-.09-.09-.24-.06-.31.05-.23.42-.54.79-.96,1.03l-.12.07s-.05.02-.07.02l-.13.02c-.05,0-.11.01-.16.01-.39,0-.85-.21-.99-.77,0-.04-.03-.07-.05-.09-.26-.26-.56-.51-.87-.78-.93-.81-1.99-1.73-2.52-3.06v-.02c-.69-1.83.09-3.19.79-4.39.61-1.06,1.19-2.07.97-3.53-.01-.07-.06-.13-.12-.15-.19-.07-.37-.19-.52-.35-.28-.3-.42-.7-.39-1.11,0-.05.01-.1.02-.15l-.06-.19c-.42-.38-.33-.87-.28-1.02.13-.44.52-.74.97-.74.32,0,.58.14.76.23.02.01.04.02.05.03.01,0,.02,0,.03.01.67-1.58,1.71-2.9,2.73-4.19.04-.05.07-.09.11-.14.04-.05.05-.12.03-.18-.34-1.07.11-1.82.49-2.44.09-.15.18-.3.27-.46,0,0,0-.02.01-.03.56-1.52.14-4.09-.6-5.48l-.2-.38c-.25-.48.14-1.04.67-.96l.42.06c1.13.16,2.09.83,2.79,1.92.93,1.46,1.2,3.37,1.03,4.9-.01.1.05.19.15.21.57.14,1.1.35,1.63.55.17.06.33.13.49.19.04.02.09.02.13,0,.22-.08.44-.16.67-.25.47-.18.94-.36,1.45-.49.1-.02.16-.11.15-.21-.17-1.63.18-3.45.96-4.75.66-1.1,1.59-1.82,2.69-2.06l.09-.02s.04,0,.05,0h.1c.38.03.7.23.86.56.25.54-.07.99-.21,1.19-.01.01-.02.03-.03.04-.65,1.36-.89,4.01-.25,5.26,0,0,0,.02.01.02.57.83.95,1.54.62,2.62-.02.06,0,.13.03.18.1.13.2.26.3.39.91,1.17,1.84,2.38,2.47,3.79.04.09.15.14.25.1h0s.01,0,.01,0c.13-.07.38-.21.68-.21.47,0,.86.31.98.77.08.32.02.74-.38,1.04,0,.01-.02.03-.03.04.03.08.05.16.07.25.07.35-.02.71-.25.99-.17.21-.4.36-.66.44-.08.03-.13.1-.13.18-.06,1.77.17,2.16,1.22,3.97.09.16.19.32.29.5l.03.06.03.08c1.55,3.51-1.35,5.79-2.91,7.01-.11.08-.21.17-.31.24-.03.02-.05.05-.06.09-.05.15-.13.28-.24.39-.19.19-.44.3-.71.3Z"/>
        <g>
          <path d="M32.07,28.52c.48,1.12.09,2.1-.61,2.98.63-.98.9-2.18.26-3.62v-.03s.35.67.35.67Z"/>
          <path d="M31.72,27.88c.65,1.45.37,2.64-.26,3.62-.86,1.08-2.21,2.02-3.02,2.88.01.51-.29.34-.52.08-.51-.58-.75-1.65-.78-2.4,0,.01-.02.02-.03.04-.02.03-.04.06-.07.1-.11.16-.25.4-.41.64-.05.07-.09.14-.14.21-.02.03-.04.05-.06.08,0,.01-.02.03-.03.04-.2.27-.41.53-.61.68-.04.03-.08.06-.12.08-.15.08-.3.09-.43,0-.1-.2.33-.72.44-.92.38-.69.48-1.38.58-2.16-.22.16-.69.77-.98.72-.26-.04.02-.29.07-.37.13-.26.26-.56.36-.85.03-.09.06-.18.08-.27.01-.06.03-.12.04-.18,0-.03,0-.06.01-.09-.17.25-.48.25-.71.36-.47.22-.65,1.17-.77,1.63,0,0-.01.01-.02.02-.03.02-.05.04-.08.05-.07.03-.13,0-.18-.07,0-.01-.01-.02-.02-.03h0s-.02-.04-.03-.06c0-.01-.01-.03-.02-.05s-.01-.03-.02-.05c-.01-.04-.02-.08-.03-.12,0-.03-.02-.07-.02-.11,0-.02,0-.04-.01-.06,0,0,0,0,0-.01,0-.02,0-.04-.01-.06,0-.04-.01-.09-.02-.14,0-.02,0-.04,0-.06-.1-.79-.08-1.95-.03-2.65,0-.02,0-.04,0-.06,0-.03,0-.07,0-.1,0-.05,0-.1.01-.15,0-.01,0-.02,0-.04,0-.01,0-.03,0-.04,0-.02,0-.05,0-.07s0-.04,0-.06c0-.02,0-.04.01-.06-2.16,1.22-4.78,1.27-6.99.16,0,.12.02.3.03.51,0,.06,0,.13.01.2,0,.03,0,.06,0,.1,0,.03,0,.06,0,.09,0,.01,0,.03,0,.04,0,.12.01.24.01.36,0,.03,0,.06,0,.09,0,.35.01.72,0,1.07,0,0,0,0,0,0,0,.05,0,.11,0,.16h0c0,.06,0,.11-.01.16,0,.05-.01.1-.02.15-.01.1-.03.2-.04.29h0c-.01.07-.03.13-.04.19-.05.2-.12.37-.22.47-.02.02-.04.04-.06.05-.21-.03-.24-.56-.3-.74-.01-.05-.03-.09-.04-.13,0-.03-.02-.06-.03-.08,0-.03-.02-.05-.03-.08-.02-.05-.04-.09-.05-.13,0-.02-.02-.04-.03-.06-.03-.07-.07-.13-.1-.18-.01-.02-.03-.04-.05-.06-.01-.01-.02-.03-.03-.04-.15-.17-.34-.25-.61-.38-.04-.02-.09-.04-.14-.07-.03-.01-.06-.03-.09-.04-.04-.02-.09-.05-.14-.07-.05.07.43,1.26.53,1.41.03.04.26.18.12.29-.24.16-.86-.51-1.04-.66.01.43.08.81.18,1.15.08.32.2.64.37.95.03.05.07.1.11.16.11.2.22.4.34.61.02.07.03.14,0,.18h0s-.09.05-.15.05c-.07,0-.16-.02-.28-.06-.04-.02-.07-.05-.11-.08-.04-.03-.07-.06-.11-.09-.04-.03-.07-.07-.11-.1-.45-.46-.85-1.18-1.16-1.65,0,.17,0,.35-.03.55,0,.09-.02.18-.04.27-.03.2-.08.41-.15.61-.02.05-.03.11-.05.16-.02.06-.05.13-.08.19-.03.06-.05.12-.08.17h0c-.1.2-.22.37-.37.51-.08.08-.17.15-.27.21-.17.02-.2-.06-.21-.17v-.03s0-.02,0-.03,0-.02,0-.03c0-.03,0-.06-.02-.09-.03-.04-.07-.07-.11-.11-.04-.04-.07-.07-.11-.11-.04-.04-.07-.07-.11-.11,0,0,0,0,0,0-.34-.33-.71-.64-1.08-.96l-.12-.11c-.18-.16-.36-.33-.54-.5-.04-.04-.08-.08-.12-.11-.02-.02-.04-.04-.06-.06-.04-.04-.08-.08-.11-.12-.02-.02-.04-.04-.06-.06-.05-.06-.11-.12-.16-.18,0,0,0,0,0,0-.03-.04-.07-.08-.1-.12-.1-.12-.2-.25-.29-.39-.03-.04-.06-.09-.09-.13h0c-.04-.07-.08-.14-.12-.21h0s-.05-.09-.08-.14c-.01-.02-.03-.05-.04-.07-.05-.1-.09-.2-.13-.3-.02-.05-.04-.1-.05-.14-.02-.07-.04-.14-.06-.21-.1-.39-.12-.75-.07-1.1.03-.21.07-.41.14-.61.09-.28.22-.56.36-.83,0,0,0,0,0,0,.24-.47.54-.93.8-1.43,0,0,0,0,0,0,.03-.06.06-.12.09-.18.09-.18.18-.37.26-.57.35-.84.53-1.8.27-3.01,0-.04.01-.08.02-.12,0-.03.01-.07,0-.11,0-.03-.23-.34-.25-.34-.37.28-.77-.1-.74-.5,0-.14.16-.37.14-.42,0-.03-.28-.46-.32-.51-.07-.1-.22-.09-.17-.25.07-.25.45.03.61.09.12.05.85.32.9.28.65-2.06,2.09-3.7,3.39-5.37-.05-.1-.1-.19-.14-.28-.02-.04-.03-.08-.05-.12-.05-.12-.08-.24-.1-.35-.03-.2-.02-.38.03-.55l.17.04c-.02.07-.03.15-.03.23.05.79.8,1.48.96,2.26l1.39-1.11-.23-.75c.26-.47.46-1.01.59-1.58l.17.04c1.21.05,2.26.6,3.38.99,1.14-.34,2.18-.94,3.41-.99-.06-.19-.1-.4-.14-.61-.02-.11-.03-.21-.04-.33-.08-.74-.05-1.56.11-2.35,0-.02,0-.04.01-.07l.18.04c-.35,1.63-.07,3.49.67,4.86l-.09.25-.18-.07c.05-.14.04-.26-.2-.71-.04-.12-.21-.72-.26-.73-1.16-.01-2.17.6-3.25.91-.01.05.07.06.11.07.07,0,.15.02.22.03.04,0,.09.01.13.02.11.02.23.03.34.05.26.04.51.09.76.15.67.16,1.3.41,1.96.8l.18.06v.03s1.32,1.14,1.32,1.14c.39-.62.9-1.57,1.06-2.26.02-.18,0-.33-.04-.47l.18-.05c.05.18.07.36.05.57-.02.17-.06.35-.14.55-.03.07-.06.13-.09.21-.01.02-.02.05-.03.07,1.28,1.71,2.74,3.34,3.39,5.42.34-.14.69-.25,1.04-.38.11-.04.41-.28.47-.03.03.13-.12.15-.17.22-.04.05-.33.51-.34.55,0,.01,0,.02,0,.04,0,.04.02.09.04.15l-.17.06-.32.43c0,.07.07.11.14.11l.06.2c-.12.02-.25.01-.37-.04-.01,0-.02-.01-.03-.02l-.23.38c-.05.95-.05,1.6.03,2.15,0,.02,0,.05,0,.07.16,1.11.62,1.84,1.55,3.36v.03ZM31.67,30.38c.29-.84.12-1.58-.21-2.31-.05-.11-.1-.22-.16-.33l-.04-.08c-.07-.14-.15-.27-.23-.41l-.05-.08c-.03-.06-.06-.11-.09-.17-.02-.03-.03-.06-.05-.08-.06-.11-.13-.23-.19-.34-.05-.09-.09-.17-.14-.26-.05-.09-.09-.17-.13-.26-.04-.08-.08-.16-.12-.24-.03-.07-.06-.14-.09-.21-.03-.06-.05-.12-.07-.19-.22-.57-.35-1.18-.31-1.87.01-.18.03-.37.07-.56l-.04-.34c-.25.32-.08.36-.04.66.01.09.01.17.01.24-.02.37-.24.49-.69.31-.62.8-.35,1.89-.48,2.84-.03.34-.07.68-.12,1.02-.09.6-.2,1.19-.34,1.78-.04.17-.08.33-.13.5-.07.25-.14.49-.22.74-.03.06-.06.12-.09.18-.03.06-.05.12-.08.18-.41,1.06-.21,2.32.51,3.22.1-.14.22-.27.34-.39.02-.02.05-.05.07-.07.64-.64,1.44-1.16,2.03-1.82.34-.36.59-.69.78-1.01.03-.05.06-.11.09-.16.08-.16.15-.31.2-.46ZM30.32,21.44l.58-.88-.96.3-1.23.38c.08.63.14,1.27.12,1.91l.32.12,1.02-1.64c-.15-.19-.3-.38-.18-.63.28-.07.16.3.34.43ZM28.66,20.96l1.08-.28c-.52-1.38-1.25-2.7-2.24-3.79.61,1.29,1,2.65,1.16,4.07ZM29.38,23.72c.2-.11.16-.33.16-.52-.11-.02-.07.03-.1.08-.12.18-.19.23-.06.44ZM28.26,27.77c.38-2.13.43-4.48.13-6.62,0-.07-.02-.13-.03-.19-.01-.08-.02-.17-.04-.25,0-.02,0-.03,0-.05-.02-.13-.04-.26-.07-.38,0-.02,0-.04-.01-.05-.01-.08-.03-.15-.05-.23-.01-.07-.03-.13-.04-.2-.02-.08-.03-.15-.05-.23-.08-.33-.17-.66-.26-.98-.03-.09-.05-.17-.08-.26-.11-.35-.24-.68-.38-.99-.03-.08-.07-.16-.11-.23-.07-.15-.15-.3-.22-.45-.06-.11-.12-.21-.18-.32-.02-.03-.04-.07-.06-.1-.06-.1-.13-.2-.19-.3-.09-.13-.18-.25-.27-.37-.01,0-.03.03-.05.05-.04.05-.08.12-.12.2-.07.13-.13.29-.2.45-.05.13-.1.26-.14.36-.03.07-.04.13-.05.15.02.03.05.06.07.09.45.57.98,1.44,1.31,2.27,0,.01,0,.02.01.03.19.51.31,1.01.29,1.43l.03.42c.06,1.49-.06,2.49-.75,3.83.23,2.08-.32,4.14-.96,6.09.03-.03.07-.07.11-.11.02-.02.03-.03.05-.05.08-.09.16-.19.24-.28.02-.03.05-.05.07-.08.02-.02.03-.03.05-.05.01-.01.03-.03.04-.04.02-.02.04-.03.06-.05.06-.04.1-.05.13-.01.06.06.07.26,0,.68-.07.84-.32,1.68-.71,2.42.2-.21.39-.44.57-.7.1-.14.2-.29.3-.45.02-.04.05-.08.07-.12.05-.08.09-.16.14-.24.07-.12.13-.25.2-.38.06-.13.12-.26.18-.39.04-.1.09-.2.13-.3.03-.07.05-.13.08-.2.08-.21.15-.42.23-.63.01-.03.02-.07.03-.11.15-.46.27-.94.38-1.44.02-.11.05-.21.07-.32,0,0,0,0,0,0,.02-.11.04-.22.06-.32,0,0,0,0,0,0ZM26.71,24.32c1.17-2.72.46-5.77-1.47-7.73-.03-.03-.07-.07-.1-.1-.23-.23-.48-.44-.74-.63-.6-.44-1.29-.79-2.05-1.02-1.22-.39-2.41-.42-3.51-.18-.06.01-.11.03-.17.04-.17.04-.33.09-.5.14-.93.31-1.77.81-2.49,1.45-.08.08-.17.15-.25.23-.08.08-.16.16-.24.24-.08.08-.15.17-.23.25-.11.13-.22.26-.32.4-.12.17-.24.34-.34.51-1.19,1.94-1.48,4.45-.27,6.78.01,0,.02-.02.03-.04,0-.01.01-.02.02-.04h0s0-.02,0-.02c0-.03.02-.05.02-.09,0-.01,0-.02,0-.03,0-.05.02-.1.02-.15,0,0,0-.02,0-.03.02-.13.03-.27.04-.43,0-.03,0-.06,0-.08.02-.23.04-.48.06-.71,0-.04,0-.07.01-.11,0-.02,0-.04,0-.06,0-.05.01-.11.02-.16,0-.03.01-.07.02-.1,0-.03.01-.06.02-.09,0,0,0,0,0,0,0-.03.01-.06.02-.08,0-.01,0-.03.01-.04.01-.04.02-.07.04-.11,0-.01,0-.02.01-.03,0-.02.02-.04.03-.05.07-.11.17-.14.3-.04v.66c.05-.05.1-.1.15-.16.1-.11.19-.21.29-.33.23-.28.45-.58.65-.89.97-1.5,1.6-3.3,2.18-4.89.04-.07.05-.1.15-.09.12.01.11.13.1.22-.54,1.61-.22,4.9,1.06,6.13.28-.13.82-1.18,1.01-1.23.27-.07.56.64.73.81l.42.42c.23-.24.43-.53.59-.86.03-.06.06-.12.08-.18,0,0,0,0,0,0,.04-.09.08-.18.11-.28.03-.07.05-.14.08-.22.03-.1.06-.2.09-.3.01-.05.03-.1.04-.15.01-.05.03-.1.04-.15h0c.02-.1.05-.21.07-.31,0,0,0,0,0,0,.02-.1.04-.19.05-.29,0-.02,0-.03,0-.05,0-.06.02-.13.03-.19.01-.1.03-.2.04-.29,0-.03,0-.06.01-.1,0-.06.01-.13.02-.19v-.08s.01-.05.01-.07c0-.05,0-.1,0-.15.03-.55.02-1.07-.01-1.51,0-.03,0-.06-.02-.09,0-.03-.02-.07-.03-.1,0-.03-.02-.06-.03-.09-.09-.25-.22-.54-.12-.68h.2c.3.82.61,1.67.96,2.51.06.14.12.28.18.41.56,1.24,1.23,2.42,2.14,3.41.03-.17-.13-.94.28-.66.05.05.09.13.12.23.04.12.06.27.08.43,0,0,0,0,0,0,0,.02,0,.05,0,.07,0,.01,0,.03,0,.04,0,.02,0,.05,0,.08.05.48.06,1.01.17,1.24ZM26.46,27c.06-.52.09-1.02.09-1.43-.05-.44-.33.18-.38.26-.24.33-.68.79-.98,1.06-.09.07-.17.13-.24.18-.06.04-.11.08-.16.12-.05.04-.1.07-.15.11-.03.02-.06.05-.09.07-.28.23-.43.48-.44,1.08-.04.39-.05.81-.04,1.23,0,.07,0,.15,0,.22,0,.04,0,.08,0,.12,0,.07,0,.15.01.22.03.34.07.67.13.98.12-.46.25-.73.38-.92,0-.01.02-.02.03-.03.1-.13.21-.21.33-.27.03-.01.05-.03.08-.04l.06-.03s.06-.03.09-.04c.04-.02.08-.04.12-.06.02,0,.04-.02.06-.03.04-.02.07-.04.11-.06.02-.01.04-.02.05-.03.02-.01.05-.03.07-.05h0s.05-.03.07-.05c.11-.08.22-.19.34-.33.04-.12.07-.25.11-.39.02-.07.03-.14.05-.21.03-.11.05-.22.07-.34,0-.04.02-.08.02-.12.02-.08.03-.16.04-.24.03-.2.07-.41.1-.61.02-.12.03-.25.05-.37ZM26.45,24.78l-.18-1.62c-.06.03-.12.04-.18.03-.01,0-.03,0-.04,0-.05-.01-.11-.04-.17-.08-.02-.02-.05-.03-.08-.05s-.05-.04-.08-.06c0,0-.02-.02-.03-.02-.02-.02-.03-.03-.05-.05,0,0,0,0,0,0l-.05-.05c-.11-.11-.22-.25-.34-.41,0-.01-.02-.03-.03-.04-.09-.12-.17-.25-.26-.39-.02-.03-.04-.06-.06-.09-.06-.1-.12-.19-.18-.29-.02-.03-.04-.06-.06-.1-.03-.05-.06-.11-.09-.16-.02-.03-.04-.06-.05-.1,0,0,0,0,0,0-.02-.03-.04-.07-.05-.1-.21-.38-.41-.78-.59-1.15-.01-.02-.02-.04-.03-.06-.16-.34-.31-.66-.43-.93-.02-.05-.04-.1-.07-.15h0s-.03-.09-.05-.12c0-.02-.02-.04-.02-.06-.02-.06-.05-.11-.07-.16-.04-.1-.07-.17-.1-.23-.15,1.16-.31,3.34-1.06,4.35-.35.64-.72.5-1.03.16-.02-.03-.05-.05-.07-.08-.01-.01-.02-.03-.03-.04-.02-.03-.05-.06-.07-.09-.02-.03-.04-.06-.07-.1-.02-.03-.04-.06-.06-.1-.03-.05-.06-.1-.09-.15-.07-.11-.13-.22-.19-.32-.26.24-.81,1.37-1.24,1.18-1.28-1.03-1.29-3.45-1.48-4.89,0,0,0,.02,0,.03-.01.03-.03.07-.04.12,0,.02-.01.03-.02.05,0,.02-.01.04-.02.05,0,.02-.02.04-.03.06-.02.04-.03.08-.05.12-.02.05-.04.1-.07.15-.03.08-.07.16-.11.25-.04.09-.08.18-.12.27-.03.06-.06.12-.09.18-.16.33-.34.7-.53,1.07-.07.14-.15.29-.23.43-.01.02-.02.04-.03.06-.07.13-.14.25-.21.38,0,.01-.02.03-.03.05-.02.03-.04.07-.06.1,0,0,0,0,0,0-.03.05-.06.1-.09.15,0,0,0,0,0,0-.01.02-.02.03-.03.05-.04.06-.08.13-.12.19-.02.03-.04.07-.06.1-.03.04-.06.09-.09.13-.03.05-.06.09-.09.13-.02.03-.04.06-.06.08l-.03.04c-.05.06-.09.12-.13.18,0,0,0,0-.01.01-.02.02-.03.04-.05.06,0,0,0,0,0,0-.02.02-.04.04-.05.06,0,0,0,0-.01.01-.01.02-.03.03-.04.05-.02.02-.04.04-.05.06-.02.02-.03.03-.05.05,0,0-.02.02-.03.02-.02.01-.03.03-.05.04,0,0-.02.01-.02.02-.09.07-.17.11-.25.12-.08.01-.15,0-.21-.07,0,0-.01-.01-.02-.02,0,.68-.22,1.44-.18,2.11.02.03.04.07.06.1.04.07.08.13.13.2.15.23.32.44.49.64.05.06.1.11.15.17.03.03.05.06.08.08s.05.05.08.08c2.68,2.66,7.28,2.62,9.9-.02.06-.06.11-.11.17-.17.08-.09.16-.18.24-.27.05-.06.1-.13.15-.19.05-.07.1-.13.14-.2.05-.07.09-.14.14-.21s.09-.14.13-.21c.08-.14.17-.29.24-.45ZM19.44,14.31c.27-.04.53-.07.79-.1-1.09-.29-2.12-.93-3.29-.92l-.48,1.32.24.59c.29-.18.6-.33.92-.45.07-.03.14-.05.22-.08.33-.11.68-.2,1.02-.27.12-.02.23-.04.35-.06.08-.01.15-.02.23-.04ZM16.6,31.22c.2-1.12.19-2.26,0-3.38-.56-.42-1.13-.85-1.63-1.35-.12-.12-.23-.24-.33-.36-.04-.04-.08-.09-.11-.14-.06-.08-.13-.16-.18-.24-.01.03-.02.06-.03.1-.01.05-.02.1-.03.16,0,.02,0,.04,0,.06,0,.13,0,.28.01.43,0,.03,0,.05,0,.08.01.11.03.21.05.32,0,.03,0,.05.01.08,0,.05.02.1.02.15.01.1.02.19.03.28.06.41.22,1.51.38,1.85.11.16.22.28.33.36.02.02.04.03.06.05.01,0,.02.02.03.02.06.04.12.08.18.11.12.06.24.1.35.15.04.02.07.04.11.06,0,0,0,0,0,0,.02,0,.04.02.05.03h0s.09.06.13.1c.08.07.16.17.24.3.01.02.03.05.04.08.09.17.18.4.27.71ZM14.94,33.38s.07,0,.06-.02c-.02-.04-.04-.07-.06-.11h0c-.07-.16-.22-.43-.33-.66,0,0,0,0,0,0-.04-.11-.08-.21-.11-.33-.1-.39-.31-1.45-.3-1.82.02-.07.04-.12.06-.15,0,0,0,0,0,0,0,0,0,0,0,0,.06-.04.13,0,.21.08,0,0,.01.01.02.02.03.03.06.06.09.1.01.02.03.04.05.05h0s.03.04.05.06c0,0,.01.02.02.03.01.02.03.04.04.06s.03.04.04.05c.04.05.08.09.11.12,0,0,.02.02.03.02.02.01.03.02.05.03-.61-1.8-1.06-3.74-.97-5.65-1.41-2.47-1.38-5.54.28-7.89.09-.13.6-.71.61-.75,0,0,0-.02,0-.03,0-.01,0-.02,0-.04,0-.02,0-.04-.01-.06-.04-.14-.11-.36-.19-.54,0-.01-.01-.02-.02-.04,0-.01-.01-.03-.02-.04-.07-.15-.14-.26-.2-.26-.05.05-.09.11-.14.16-.05.06-.09.12-.13.17-.04.06-.09.12-.13.18s-.08.13-.12.19c-.04.06-.08.13-.12.2-.24.41-.44.86-.62,1.34-.05.12-.09.25-.13.37-.03.08-.06.17-.08.26h0c-.03.09-.05.17-.08.26-.04.13-.07.27-.11.4-.02.09-.04.18-.07.27-.05.19-.09.39-.12.59-.02.08-.03.15-.04.23-.01.06-.02.13-.03.19-.01.08-.03.16-.04.24,0,.02,0,.04,0,.06-.01.07-.02.14-.03.22,0,.02,0,.05,0,.07-.06.43-.1.86-.13,1.3,0,.01,0,.03,0,.04,0,.14-.02.28-.02.42,0,.01,0,.03,0,.04-.08,1.7.03,3.45.33,5.07,0,0,0,0,0,0,.03.17.06.33.1.49,0,0,0,0,0,0,.02.11.05.22.07.32.02.11.05.22.08.32.03.1.05.2.08.3.05.17.1.34.15.51.03.09.06.18.08.27.07.21.14.42.22.62.03.08.06.16.09.23,0,0,0,0,0,0,.07.18.15.36.23.53,0,0,0,0,0,0,.04.08.08.17.12.25.02.04.04.08.07.13.06.12.13.24.2.35.02.03.04.07.06.1,0,0,.01.02.02.03.07.11.14.21.21.32.17.25.36.47.55.67ZM13.28,32.99c.09-.38.1-.76.04-1.15-.03-.2-.07-.39-.13-.59-.04-.15-.1-.31-.16-.46-.05-.13-.11-.26-.17-.39-.61-1.93-.63-3.94-.82-5.93l-.32-.62c-.19.08-.33.13-.46.09-.01,0-.03,0-.04-.02s-.03-.01-.04-.02c0,0-.01,0-.02-.01-.01-.01-.03-.02-.04-.03,0,0-.01-.01-.02-.02-.03-.03-.06-.06-.09-.1-.01.63-.11,1.26-.32,1.86-.54,1.49-2.27,2.95-1.59,4.71.09.25.2.48.33.7.03.05.06.1.09.14.03.05.06.09.09.14.05.07.1.14.15.2.03.04.07.09.1.13.09.11.18.21.28.32.06.06.12.12.18.18.67.68,1.47,1.26,2.12,1.95.08.08.15.16.23.25.06-.08.12-.17.17-.25.04-.06.08-.12.11-.19,0,0,0,0,0,0,.02-.04.04-.08.07-.12.07-.13.12-.26.17-.39,0-.01,0-.03.01-.04.04-.1.06-.21.09-.31ZM12.17,20.96c.11-1.44.56-2.81,1.16-4.11-.97,1.12-1.77,2.43-2.24,3.83l1.08.28ZM12.01,23.16l.07-1.91-1.27-.4-.88-.28.52.88.08-.02.12-.42s.08,0,.11,0c.09.02.13.11.11.24-.03.18-.25.34-.21.48l1.04,1.56.3-.12ZM11.52,23.54l-.23-.35c-.04.17-.03.39.1.52l.13-.17ZM11.15,22.94l-.19-.26v.76l.19-.5ZM10.29,21.66l-.3-.46c-.16,0,0,.81.3.46Z"/>
          <path class="cls-9" d="M31.46,28.07c.33.73.49,1.47.21,2.31-.05.15-.12.3-.2.46-.03.05-.06.11-.09.16-.19.32-.44.66-.78,1.01-.59.67-1.4,1.18-2.03,1.82-.02.02-.05.05-.07.07-.12.12-.23.25-.34.39-.72-.89-.92-2.16-.51-3.22.02-.06.05-.12.08-.18.03-.06.06-.12.09-.18.08-.24.15-.49.22-.74.04-.17.09-.33.13-.5.14-.59.25-1.18.34-1.78.05-.34.09-.68.12-1.02.12-.94-.14-2.04.48-2.84.45.18.67.06.69-.31h0c-.04.69.09,1.3.31,1.87.02.06.05.12.07.19.03.07.06.14.09.21.04.08.08.16.12.24.04.09.09.18.13.26.05.09.09.17.14.26.06.11.13.23.19.34.02.03.03.06.05.08.03.06.06.11.09.17l.05.08c.08.14.15.28.23.41l.04.08c.06.11.11.22.16.33Z"/>
          <path d="M31.14,21.46c0,.18-.07.31-.17.4-.06.04-.14.07-.22.09l-.06-.2s.06,0,.08-.03c.11-.11.09-.37.09-.51l.17-.06c.03.09.08.19.1.27,0,.02,0,.03,0,.05Z"/>
          <path d="M31.13,21.41c-.03-.09-.07-.19-.1-.27-.02-.06-.04-.11-.04-.15.01.1.12.27.15.42Z"/>
          <path class="cls-1" d="M30.9,20.56l-.58.88c-.17-.13-.05-.5-.34-.43l-.04-.14.96-.3Z"/>
          <path class="cls-2" d="M30.86,21.2c0,.14.02.4-.09.51-.02.02-.05.03-.08.03-.07,0-.15-.05-.14-.11l.32-.43Z"/>
          <path d="M30.74,21.94c.08-.01.16-.04.22-.09-.16.12-.39.14-.59.04.11.05.24.06.37.04Z"/>
          <path class="cls-1" d="M30.16,21.64l-1.02,1.64-.32-.12c.02-.64-.03-1.28-.12-1.91l1.45.4Z"/>
          <path class="cls-1" d="M30.16,21.64l-1.45-.4,1.23-.38.04.14c-.12.25.03.44.18.63Z"/>
          <path d="M30.11,22.27c-.05.92-.04,1.59.03,2.15-.08-.55-.08-1.21-.03-2.15Z"/>
          <path class="cls-9" d="M29.82,22.64l.04.34c-.04.19-.06.38-.07.56h0c0-.07,0-.15-.01-.24-.04-.31-.2-.34.04-.66Z"/>
          <path class="cls-9" d="M29.74,20.68l-1.08.28c-.16-1.42-.55-2.78-1.16-4.07.98,1.1,1.72,2.41,2.24,3.79Z"/>
          <path class="cls-9" d="M29.54,23.2c0,.19.04.41-.16.52-.13-.21-.06-.26.06-.44.03-.05,0-.1.1-.08Z"/>
          <path class="cls-2" d="M28.57,33.83s-.05.05-.07.07c.02-.02.05-.05.07-.07Z"/>
          <path d="M28.39,21.15c.3,2.14.25,4.49-.13,6.62.38-2.13.43-4.48.13-6.62Z"/>
          <path class="cls-9" d="M28.39,21.15c.3,2.14.25,4.49-.13,6.62,0,0,0,0,0,0-.02.11-.04.22-.06.32,0,0,0,0,0,0-.02.11-.04.21-.07.32-.11.5-.24.98-.38,1.44-.01.04-.02.07-.03.11-.07.22-.15.43-.23.63-.03.07-.05.13-.08.2-.04.1-.08.2-.13.3-.06.13-.12.27-.18.39-.06.13-.13.26-.2.38-.04.08-.09.16-.14.24-.02.04-.05.08-.07.12-.1.16-.19.31-.3.45-.18.25-.37.48-.57.7.4-.74.64-1.58.71-2.42.06-.42.05-.61,0-.68-.03-.03-.08-.03-.13.01-.02.01-.04.03-.06.05-.01.01-.03.03-.04.04-.01.01-.03.03-.05.05-.02.02-.05.05-.07.08-.08.09-.16.19-.24.28-.02.02-.03.04-.05.05-.04.04-.08.08-.11.11.64-1.95,1.19-4,.96-6.09.69-1.34.81-2.34.75-3.83l-.03-.42c.04-.4-.08-.91-.29-1.43,0,0,0-.02-.01-.03-.32-.84-.85-1.7-1.31-2.27-.02-.03-.05-.06-.07-.09,0-.02.02-.08.05-.15.03-.1.08-.22.14-.36.06-.15.13-.32.2-.45.04-.09.08-.16.12-.2.02-.02.04-.04.05-.05.09.12.18.24.27.37.07.1.13.19.19.3.02.03.04.07.06.1.06.1.12.21.18.32.08.14.15.29.22.45.04.08.07.15.11.23.14.32.26.65.38.99.03.09.06.17.08.26.1.32.18.64.26.98.02.08.03.15.05.23.01.07.03.13.04.2.02.08.03.15.05.23,0,.02,0,.04.01.05.02.13.05.26.07.38,0,.02,0,.03,0,.05.01.08.03.17.04.25,0,.06.02.13.03.19Z"/>
          <path d="M28.32,20.71c.01.08.03.17.04.25-.01-.08-.03-.17-.04-.25Z"/>
          <path d="M28.25,20.27c.02.13.05.26.07.38-.02-.13-.04-.26-.07-.38Z"/>
          <path d="M28.26,27.77c-.02.11-.04.22-.06.32.02-.11.04-.22.06-.32Z"/>
          <path d="M28.19,19.99c.02.08.03.15.05.23-.01-.08-.03-.15-.05-.23Z"/>
          <path d="M28.2,28.1c-.02.11-.04.21-.07.32.02-.11.05-.21.07-.32Z"/>
          <path d="M28.1,19.56c.02.08.03.15.05.23-.02-.08-.03-.15-.05-.23Z"/>
          <path d="M27.71,29.97s.02-.07.03-.11c-.01.04-.02.07-.03.11Z"/>
          <path d="M27.49,30.6c-.03.07-.05.13-.08.2.03-.06.05-.13.08-.2Z"/>
          <path class="cls-9" d="M25.23,16.59c1.94,1.96,2.64,5,1.47,7.73-.11-.23-.13-.76-.17-1.24,0-.03,0-.05,0-.08,0-.01,0-.03,0-.04,0-.02,0-.05,0-.07,0,0,0,0,0,0-.02-.16-.05-.31-.08-.43-.03-.1-.07-.18-.12-.23-.41-.28-.25.49-.28.66-.91-.99-1.58-2.17-2.14-3.41-.06-.14-.12-.28-.18-.41-.35-.83-.66-1.69-.96-2.52h-.2c-.1.14.03.44.12.69.01.03.02.06.03.09.01.04.02.07.03.1,0,.03.01.06.01.09.04.44.04.96.01,1.51,0,.05,0,.1,0,.15,0,.02,0,.05,0,.07v.08c-.01.06-.02.13-.02.19,0,.03,0,.06-.01.1,0,.1-.02.2-.04.29,0,.06-.02.13-.03.19,0,.02,0,.03,0,.05-.02.1-.03.19-.05.29,0,0,0,0,0,0-.02.1-.04.21-.07.31h0c-.01.05-.02.1-.04.15-.01.05-.03.1-.04.15-.03.1-.06.2-.09.3-.02.07-.05.14-.08.22-.04.09-.07.19-.11.28,0,0,0,0,0,0-.03.06-.05.12-.08.18-.16.33-.36.62-.59.86l-.42-.42c-.17-.17-.46-.89-.73-.81-.18.05-.72,1.1-1.01,1.23-1.27-1.23-1.6-4.51-1.06-6.13,0-.09.02-.21-.1-.22-.09,0-.11.03-.15.09-.58,1.58-1.21,3.39-2.18,4.89-.2.31-.42.61-.65.89-.09.11-.19.22-.29.33-.05.05-.1.11-.15.16v-.66c-.13-.1-.22-.08-.3.04-.01.02-.02.03-.03.05,0,0,0,.02-.01.03-.01.03-.03.07-.04.11,0,.01,0,.03-.01.04,0,.03-.01.06-.02.08,0,0,0,0,0,0,0,.03-.01.06-.02.09,0,.03-.01.07-.02.1,0,.05-.02.1-.02.16,0,.02,0,.04,0,.06,0,.04,0,.07-.01.11-.03.23-.04.48-.06.71,0,.03,0,.06,0,.08-.01.16-.03.31-.04.43,0,0,0,.02,0,.03,0,.06-.02.11-.02.15,0,.01,0,.02,0,.03,0,.03-.01.06-.02.09,0,0,0,.02,0,.02h0s-.01.03-.02.04c0,.02-.02.03-.03.04-1.21-2.33-.92-4.83.27-6.78.11-.18.22-.35.34-.51.1-.14.21-.27.32-.4.07-.09.15-.17.23-.25.08-.08.16-.16.24-.24s.16-.16.25-.23c.72-.64,1.56-1.15,2.49-1.45.16-.05.33-.1.5-.14.06-.01.11-.03.17-.04,1.1-.24,2.29-.21,3.51.18.76.23,1.44.58,2.05,1.02.26.19.51.4.74.63.03.03.07.06.1.1Z"/>
          <path d="M26.81,13.79l-.18.05c-.1-.35-.36-.59-.57-.96-.92-1.93-.57-4.59.29-6.49l-.05-.17c.09-.03.18-.05.27-.07.31.02-.03.34-.11.49-.76,1.55-1.06,4.6-.21,6.14.05.07.09.13.14.2.14.21.25.39.34.58.02.04.04.09.05.13.01.04.03.07.04.11Z"/>
          <path class="cls-7" d="M26.63,13.84c.04.14.06.29.04.47-.16.69-.67,1.64-1.06,2.26l-1.33-1.14v-.03s.22-.58.22-.58l.09-.25c-.74-1.38-1.01-3.23-.67-4.86.2-.94.61-1.82,1.27-2.48.02-.02.04-.04.06-.06.06-.06.13-.12.19-.18.09-.08.18-.15.28-.22.15-.1.3-.2.46-.29.05-.03.11-.06.17-.08-.86,1.91-1.21,4.56-.29,6.49.2.37.46.61.57.96Z"/>
          <path d="M26.63,15.11c.03-.07.06-.14.09-.21-.03.07-.06.13-.09.21Z"/>
          <path class="cls-4" d="M26.55,25.57c0,.41-.03.91-.09,1.43-.01.12-.03.25-.05.37-.03.21-.06.41-.1.61-.01.08-.03.16-.04.24,0,.04-.01.08-.02.12-.02.12-.05.23-.07.34-.02.07-.03.14-.05.21-.03.14-.07.27-.11.39-.12.14-.24.25-.34.33-.02.02-.05.04-.07.05h0s-.05.03-.07.05c-.02.01-.04.02-.05.03-.04.02-.07.04-.11.06-.02.01-.04.02-.06.03-.04.02-.08.04-.12.06-.03.01-.06.03-.09.04l-.06.03s-.05.03-.08.04c-.12.06-.23.14-.33.27,0,.01-.02.02-.03.03-.13.18-.26.46-.38.92-.06-.31-.11-.65-.13-.98,0-.07-.01-.15-.01-.22,0-.04,0-.08,0-.12,0-.07,0-.15,0-.22,0-.42,0-.84.04-1.23.01-.61.16-.85.44-1.08.03-.02.06-.05.09-.07.05-.03.09-.07.15-.11.05-.04.11-.07.16-.12.08-.05.16-.11.24-.18.3-.27.74-.74.98-1.06.06-.08.33-.7.38-.26Z"/>
          <path class="cls-2" d="M26.52,23s0,.05,0,.08c0-.02,0-.05,0-.08Z"/>
          <path class="cls-2" d="M26.51,22.89s0,.05,0,.07c0-.02,0-.05,0-.07Z"/>
          <path d="M26.4,30.29c.06-.04.1-.05.13-.01-.03-.03-.08-.02-.13.01Z"/>
          <path d="M26.44,33.13s.04-.05.06-.08c-.02.03-.04.05-.06.08Z"/>
          <path class="cls-1" d="M26.27,23.16l.18,1.62c-.08.15-.16.3-.24.45-.04.07-.09.14-.13.21s-.09.14-.14.21c-.05.07-.1.13-.14.2-.05.06-.1.13-.15.19-.08.09-.16.19-.24.27-.05.06-.11.12-.17.17-2.62,2.65-7.22,2.68-9.9.02-.03-.03-.05-.05-.08-.08s-.05-.05-.08-.08c-.05-.05-.1-.11-.15-.17-.18-.2-.34-.41-.49-.64-.04-.06-.09-.13-.13-.2-.02-.03-.04-.07-.06-.1-.04-.67.17-1.43.18-2.11,0,0,.01.02.02.02.06.06.13.08.21.07.07-.01.16-.05.25-.12,0,0,.02-.01.02-.02.02-.01.03-.03.05-.04,0,0,.02-.02.03-.02.02-.02.03-.03.05-.05.02-.02.04-.04.05-.06.01-.01.03-.03.04-.05,0,0,0,0,.01-.01.02-.02.04-.04.05-.06,0,0,0,0,0,0,.02-.02.03-.04.05-.06,0,0,0,0,.01-.01.04-.06.09-.11.13-.18l.03-.04s.04-.05.06-.08c.03-.04.06-.09.09-.13.03-.04.06-.09.09-.13.02-.03.04-.07.06-.1.04-.06.08-.12.12-.19,0-.02.02-.03.03-.05,0,0,0,0,0,0,.03-.05.06-.1.09-.15,0,0,0,0,0,0,.02-.03.04-.07.06-.1,0-.01.02-.03.03-.05.07-.12.14-.25.21-.38.01-.02.02-.04.03-.06.08-.14.15-.29.23-.43.19-.37.37-.74.53-1.07.03-.06.06-.12.09-.18.04-.09.09-.19.12-.27.04-.09.08-.17.11-.25.02-.05.05-.11.07-.15.02-.04.03-.08.05-.12,0-.02.02-.04.03-.06,0-.02.02-.04.02-.05,0-.02.01-.03.02-.05.02-.05.03-.09.04-.12,0-.01,0-.02,0-.03.19,1.44.2,3.86,1.48,4.89.43.2.98-.94,1.24-1.18.06.1.12.2.19.32.03.05.06.1.09.15.02.03.04.06.06.1s.04.06.07.1c.02.03.04.06.07.09.01.01.02.03.03.04.02.03.05.06.07.08.32.35.68.48,1.03-.16.75-1.01.91-3.19,1.06-4.35.02.06.05.13.1.23.02.05.04.1.07.16,0,.02.02.04.02.06.02.04.03.07.05.11h0c.02.06.04.11.07.16.12.27.27.59.43.93,0,.02.02.04.03.06.18.37.38.77.59,1.15.02.03.04.07.05.1,0,0,0,0,0,0,.02.03.04.07.05.1.03.05.06.11.09.16.02.03.04.06.06.1.06.1.12.2.18.29.02.03.04.06.06.09.09.14.17.27.26.39,0,.01.02.03.03.04.11.16.23.3.34.41.02.02.04.04.05.05,0,0,0,0,0,0,.02.02.03.03.05.05,0,0,.02.02.03.02.03.02.05.04.08.06.03.02.05.04.08.05.06.04.11.06.17.08.01,0,.03,0,.04,0,.06,0,.12,0,.18-.03ZM25.25,24.47c.05-.1.07-.19.08-.28-.12-.19-.35.33-.42.42-.03.05-.07.1-.12.15-.01.02-.03.03-.04.05h-.01c-.05.06-.1.1-.16.14-.02.01-.03.02-.05.04,0,0-.02.01-.03.02-.03.02-.05.03-.08.05,0,0-.02.01-.03.02s-.02.01-.03.02c-.02,0-.04.02-.06.03-.05.02-.09.05-.14.07-.02,0-.03.02-.05.02,0,0,0,0,0,0-.07.03-.14.06-.2.09,0,0,0,0,0,0-.09.04-.16.07-.22.1-.01,0-.02.01-.03.02,0,0-.02.01-.02.02,0,0-.01,0-.01.01,0,0,0,0-.01.01-.02.02-.03.05-.02.08,0,0,0,0,0,0,0,0,.02,0,.03,0,.13.02.3,0,.46-.07.07-.02.13-.06.2-.09.07-.03.13-.07.2-.12.15-.1.3-.22.43-.35.06-.06.11-.11.15-.17.05-.06.09-.12.12-.17.02-.04.05-.08.06-.12ZM25.15,23.36c.08-.21.11-.38.02-.46-.03-.03-.07-.05-.12-.06-.32.21-.4.71-.9.6l.12-.52c-.32-.06-.19.45-.44.54-.17.06-.42.08-.6.14l.04-.4c-.28-.05-.21.36-.38.56-.11.12-.54.33-.71.45-.1.07-.86.65-.62.79.15.08.26-.12.34-.12.67.37,1.94.7,2.39-.14.07-.09.3-.4.52-.74.03-.04.05-.08.08-.13.11-.17.2-.35.26-.51ZM23.91,22.22c.24-.05.64,0,.4-.34-.56-.08-2.43.19-2.01,1.12.01,0,.03.01.04.02.06.02.12.03.19.01,0,0,0,0,.01,0,0,0,.02,0,.03,0,.02,0,.03,0,.05-.02.03,0,.05-.02.08-.04,0,0,0,0,0,0,.04-.02.08-.05.12-.07.04-.03.08-.06.13-.09.06-.04.11-.09.17-.14.11-.09.22-.18.34-.26,0,0,.02-.01.03-.02.02-.01.03-.02.05-.03.03-.02.06-.04.1-.05.03-.02.07-.03.1-.04.03-.01.06-.02.09-.03.02,0,.05-.01.07-.01ZM21.5,26.55v-.16c-1.23-.66-.84-.88-2.13-.01-.14.05-.08.18.03.19l-.03.02c-.16.06-.06.22.07.19.19-.04.83-.57.98-.57.29.05.84.7,1.08.55v-.16s-.03-.02-.05-.04c.02,0,.04,0,.05-.02ZM19.26,24.96c.01-.09-.01-.17-.07-.26-.01-.02-.03-.04-.04-.06-.02-.02-.03-.04-.05-.06,0,0-.01-.01-.02-.02-.05-.05-.1-.1-.16-.14-.02-.02-.05-.04-.08-.06h0s-.07-.05-.11-.08c0,0-.02-.01-.03-.02-.05-.03-.09-.06-.14-.09-.09-.05-.17-.11-.25-.16-.02,0-.03-.02-.05-.03-.03-.02-.05-.03-.08-.05-.02,0-.03-.02-.05-.03-.08-.05-.16-.11-.21-.15-.15-.17-.2-.72-.41-.49l.06.37c-.46-.19-.8-.1-.86-.71-.35-.07-.1.35-.04.52,0,0,0,0,0,0-.2.05-.34,0-.45-.1t0,0s-.04-.03-.05-.05c-.02-.02-.03-.04-.05-.05-.09-.11-.17-.24-.24-.32-.04-.04-.08-.07-.12-.07-.02,0-.04,0-.06,0,0,0,0,0,0,0-.01,0-.03,0-.04.01,0,0-.01,0-.02.01-.01,0-.03.02-.04.03,0,0-.02.01-.02.02h0c.03.16.09.34.16.53.01.03.02.05.03.08.02.06.05.11.08.17.29.62.77,1.28,1.24,1.5.55.15,1.38-.04,1.85-.37.05.1.22.26.32.12ZM18.48,23.02c.76-.85-2.31-1.59-2.03-.86.35-.01.62.09.86.24.03.02.06.04.09.06.02.01.03.02.05.03.02.01.04.03.06.05,0,0,.02.01.02.02.04.03.07.05.1.08t0,0c.09.07.17.14.25.19,0,0,0,0,0,0,.05.04.09.07.14.1.05.03.1.05.14.07.1.04.2.05.31.02ZM17.08,25.58c.09,0,.14-.04.12-.19-.24-.05-.48-.13-.69-.26-.23-.14-.44-.34-.61-.55-.08-.12-.18-.28-.26-.37,0,0-.01-.02-.02-.03-.02-.02-.04-.03-.05-.03-.02-.01-.04-.01-.05,0,0,0,0,0,0,0-.04.03-.03.12-.02.18.13.44.84.98,1.26,1.14.02,0,.05.02.07.03.05.02.11.04.17.05.03,0,.05,0,.08,0Z"/>
          <path d="M26.38,12.98c.14.21.25.39.34.58-.08-.18-.2-.37-.34-.58Z"/>
          <path class="cls-2" d="M26.43,22.45c.04.12.06.27.08.43-.02-.16-.05-.31-.08-.43Z"/>
          <path class="cls-2" d="M26.46,27c-.01.12-.03.25-.05.37.02-.12.03-.25.05-.37Z"/>
          <path d="M26.34,30.34s.04-.03.06-.05c-.02.01-.04.03-.06.05Z"/>
          <path d="M26.29,6.22l.05.17c-.06.03-.11.05-.17.08-.16.09-.32.18-.46.29-.1.07-.19.14-.28.22-.07.06-.13.12-.19.18-.02.02-.04.04-.06.06-.65.67-1.06,1.54-1.27,2.48l-.18-.04s0-.02,0-.03c.01-.07.03-.14.05-.21.02-.07.03-.13.05-.2,0-.03.02-.07.03-.1.03-.1.06-.2.1-.3.01-.03.02-.07.03-.1.04-.1.07-.19.11-.29.03-.06.05-.12.08-.19.03-.06.06-.12.09-.18.03-.06.06-.12.1-.18.05-.09.1-.17.15-.25.08-.12.16-.24.25-.35.03-.04.06-.08.1-.11.02-.02.04-.05.06-.07.04-.05.09-.09.13-.14.01-.01.02-.02.03-.03.03-.03.07-.07.11-.1.04-.03.07-.06.11-.09.02-.02.04-.03.07-.05.06-.05.13-.1.2-.14.03-.02.05-.03.08-.05.05-.03.11-.06.16-.09.06-.03.11-.06.17-.08.05-.02.1-.04.15-.06.04-.02.08-.03.13-.04Z"/>
          <path d="M26.3,30.38s.03-.03.04-.04c-.01.01-.03.03-.04.04Z"/>
          <path class="cls-2" d="M26.32,27.98c-.01.08-.03.16-.04.24.01-.08.03-.16.04-.24Z"/>
          <path d="M26.26,30.43s-.05.05-.07.08c.02-.03.05-.05.07-.08Z"/>
          <path class="cls-2" d="M26.25,28.34c-.02.12-.05.23-.07.34.03-.11.05-.22.07-.34Z"/>
          <path d="M26.3,15.62s-.08.12-.12.2c.04-.09.08-.16.12-.2Z"/>
          <path class="cls-2" d="M26.18,28.68c-.02.07-.03.14-.05.21.02-.07.03-.14.05-.21Z"/>
          <path d="M26.01,6.33c.05-.02.1-.04.15-.06-.05.02-.1.04-.15.06Z"/>
          <path class="cls-2" d="M26.04,23.18s.03,0,.04,0c-.01,0-.03,0-.04,0Z"/>
          <path d="M25.86,16.87c.45.57.98,1.43,1.31,2.27-.33-.83-.86-1.7-1.31-2.27Z"/>
          <path d="M25.94,30.78s-.03.03-.05.05c.01-.02.03-.03.05-.05Z"/>
          <path d="M25.8,33.85c.21-.15.42-.41.61-.68-.2.27-.41.53-.61.68Z"/>
          <path class="cls-2" d="M25.8,23.05s.05.04.08.05c-.02-.01-.05-.03-.08-.05Z"/>
          <path class="cls-2" d="M25.72,6.76c.15-.1.3-.2.46-.29-.16.09-.32.18-.46.29Z"/>
          <path d="M25.68,6.5c.05-.03.11-.06.16-.09-.06.03-.11.06-.16.09Z"/>
          <path class="cls-2" d="M25.72,22.99s.05.04.08.06c-.02-.02-.05-.04-.08-.06Z"/>
          <path class="cls-2" d="M25.64,22.92s.04.03.05.05c-.02-.02-.03-.03-.05-.05Z"/>
          <path class="cls-2" d="M25.6,29.66s.05-.03.07-.05c-.02.02-.05.04-.07.05Z"/>
          <path class="cls-2" d="M25.64,22.92s-.04-.03-.05-.05l.05.05Z"/>
          <path class="cls-2" d="M25.54,29.71s.05-.03.07-.05c-.02.02-.05.03-.07.05Z"/>
          <path class="cls-2" d="M25.48,29.75s.04-.02.05-.03c-.02.01-.04.02-.05.03Z"/>
          <path d="M25.4,6.69c.06-.05.13-.1.2-.14-.07.04-.13.09-.2.14Z"/>
          <path class="cls-2" d="M25.31,29.84s.04-.02.06-.03c-.02.01-.04.02-.06.03Z"/>
          <path class="cls-2" d="M25.44,6.98c-.07.06-.13.12-.19.18.06-.06.13-.12.19-.18Z"/>
          <path d="M25.22,6.84s.07-.06.11-.09c-.04.03-.08.06-.11.09Z"/>
          <path d="M25.33,24.2c0,.09-.03.18-.08.28-.02.04-.04.08-.06.12-.04.06-.08.12-.12.17s-.1.11-.15.17c-.13.13-.28.25-.43.35-.07.04-.13.08-.2.12-.07.04-.13.07-.2.09-.17.06-.33.09-.46.07,0,0-.02,0-.03,0,0,0,0,0,0,0-.01-.03,0-.05.02-.08,0,0,0,0,.01-.01,0,0,0,0,.01-.01,0,0,.02-.01.02-.02s.02-.01.03-.02c.06-.03.13-.07.22-.1,0,0,0,0,0,0,.06-.03.13-.06.2-.09,0,0,0,0,0,0,.02,0,.03-.02.05-.02.05-.02.09-.05.14-.07.02,0,.04-.02.06-.03,0,0,.02,0,.03-.02,0,0,.02-.01.03-.02.03-.02.05-.03.08-.05,0,0,.02-.01.03-.02.02-.01.04-.02.05-.04.06-.04.11-.08.16-.13h.01s.03-.04.04-.06c.04-.05.08-.1.12-.15.07-.09.3-.61.42-.42Z"/>
          <path class="cls-2" d="M25.22,22.42s.02.03.03.04c0-.01-.02-.03-.03-.04Z"/>
          <path class="cls-2" d="M25.24,7.15s-.04.04-.06.06c.02-.02.04-.04.06-.06Z"/>
          <path d="M25.25,24.47s-.04.08-.06.12c.02-.04.04-.08.06-.12Z"/>
          <path class="cls-1" d="M25.17,22.9c.08.09.06.26-.02.46.08-.21.11-.38.02-.46Z"/>
          <path d="M25.17,22.9c.08.09.06.26-.02.46-.06.16-.16.33-.26.51-.03.04-.05.09-.08.13-.22.34-.45.65-.52.74-.45.84-1.72.52-2.39.14-.08,0-.19.19-.34.12-.23-.14.52-.71.62-.79.17-.12.6-.33.71-.45.17-.2.11-.6.38-.56l-.04.4c.18-.06.43-.08.6-.14.25-.09.12-.6.44-.54l-.12.52c.5.11.58-.38.9-.6.05,0,.1.03.12.06ZM23.68,24.26c.09-.23.12-.51,0-.58-.74.2-.74.29-.6.43.01.01.03.03.05.04.01,0,.02.02.03.03.02.02.04.03.05.05.09.09.18.2.17.36.05.02.1,0,.15-.07,0-.01.02-.02.03-.04.01-.02.03-.04.04-.07,0-.02.02-.03.03-.05,0-.02.02-.04.03-.05l.02-.06Z"/>
          <path d="M25.12,6.93s.07-.07.11-.1c-.04.03-.07.06-.11.1Z"/>
          <path class="cls-2" d="M25.19,29.89s-.06.03-.09.04c.03-.01.06-.03.09-.04Z"/>
          <path class="cls-2" d="M25.05,29.96s-.05.03-.08.04c.03-.01.05-.03.08-.04Z"/>
          <path d="M25.07,24.76c-.05.06-.1.11-.15.17.05-.05.11-.11.15-.17Z"/>
          <path class="cls-2" d="M24.96,22.03s-.04-.06-.06-.09c.02.03.04.06.06.09Z"/>
          <path class="cls-1" d="M24.81,23.99s.05-.08.08-.13c-.03.04-.05.09-.08.13Z"/>
          <path class="cls-2" d="M24.78,27.19c.05-.04.11-.08.16-.12-.06.04-.11.08-.16.12Z"/>
          <path d="M24.73,24.82h.01s0,0-.01,0Z"/>
          <path class="cls-2" d="M24.73,21.64s-.04-.06-.06-.1c.02.03.04.06.06.1Z"/>
          <path class="cls-2" d="M24.64,30.27s-.02.02-.03.03c0-.01.02-.02.03-.03Z"/>
          <path class="cls-2" d="M24.55,27.36s.06-.05.09-.07c-.03.02-.06.05-.09.07Z"/>
          <path class="cls-2" d="M24.58,21.39s-.04-.06-.05-.1c.02.03.04.07.05.1Z"/>
          <path d="M24.52,24.99s.04-.02.05-.04c-.02.01-.03.02-.05.04Z"/>
          <path class="cls-2" d="M24.53,21.29s-.04-.07-.05-.1c.02.03.04.07.05.1Z"/>
          <path d="M24.49,14.81l-.21.58-.18-.06c.01-.07.03-.14.04-.2,0-.02,0-.03.01-.05.01-.04.02-.07.03-.1,0-.02.02-.04.02-.06.03-.06.05-.1.07-.15,0,0,0-.02.01-.03,0,0,0,0,0-.01l.18.07Z"/>
          <path d="M24.41,25.06s.05-.03.08-.05c-.03.02-.05.03-.08.05Z"/>
          <path d="M24.36,25.09s.02-.01.03-.02c0,0-.02.01-.03.02Z"/>
          <path d="M24.31,21.88c.24.33-.16.29-.4.34-.02,0-.05,0-.07.01-.03,0-.06.02-.09.03-.03.01-.07.03-.1.04-.03.02-.07.03-.1.05-.02,0-.03.02-.05.03,0,0-.02.01-.03.02-.12.08-.23.17-.34.26-.06.05-.12.1-.17.14-.04.03-.09.07-.13.09s-.08.05-.12.07c0,0,0,0,0,0-.03.01-.05.03-.08.04-.02,0-.04.01-.05.02,0,0-.02,0-.03,0,0,0,0,0-.01,0-.06.01-.12,0-.19-.01-.01,0-.03-.01-.04-.02-.42-.93,1.45-1.2,2.01-1.12Z"/>
          <path class="cls-9" d="M24.11,14.04c.24.45.25.58.2.71,0,0,0,0,0,.01,0,0,0,.02-.01.03-.02.04-.04.09-.07.15,0,.02-.02.04-.02.06-.01.03-.02.06-.03.1,0,.02,0,.03-.01.05-.02.06-.03.12-.04.2-.66-.39-1.29-.64-1.96-.8-.25-.06-.5-.11-.76-.15-.11-.02-.22-.03-.34-.05-.04,0-.09-.01-.13-.02-.07,0-.15-.02-.22-.03-.03,0-.12-.02-.11-.07,1.08-.31,2.09-.93,3.25-.91.06.02.22.62.26.73Z"/>
          <path d="M24.3,25.12s.04-.02.06-.03c-.02.01-.04.02-.06.03Z"/>
          <path class="cls-9" d="M24.2,14.99s.02-.04.02-.06c0,.02-.02.04-.02.06Z"/>
          <path class="cls-2" d="M23.85,19.97s.02.04.03.06c-.01-.02-.02-.04-.03-.06Z"/>
          <path d="M23.75,22.26s.06-.02.09-.03c-.03,0-.06.02-.09.03Z"/>
          <path class="cls-5" d="M23.69,23.68c.12.07.09.35,0,.58l-.02.06s-.02.04-.03.05c0,.02-.02.03-.03.05-.01.02-.03.05-.04.07,0,.01-.02.03-.03.04-.05.06-.1.09-.15.07.01-.16-.08-.27-.17-.36-.02-.02-.04-.03-.05-.05-.01-.01-.02-.02-.03-.03-.02-.01-.03-.03-.05-.04-.14-.14-.14-.23.6-.43Z"/>
          <path class="cls-2" d="M23.68,24.26l-.02.06.02-.06Z"/>
          <path d="M23.61,12.08c.01.11.03.22.04.33-.02-.11-.03-.22-.04-.33Z"/>
          <path class="cls-2" d="M23.64,24.37s-.02.03-.03.05c0-.02.02-.03.03-.05Z"/>
          <path d="M23.62,25.46s0,0-.01.01c0,0,0,0,.01-.01Z"/>
          <path d="M23.55,22.36s.06-.04.1-.05c-.03.02-.07.03-.1.05Z"/>
          <path class="cls-2" d="M23.61,24.42s-.03.05-.04.07c.01-.02.03-.04.04-.07Z"/>
          <path d="M23.6,25.47s-.03.05-.02.08c-.01-.03,0-.05.02-.08Z"/>
          <path class="cls-2" d="M23.57,24.49s-.02.03-.03.04c0-.01.02-.02.03-.04Z"/>
          <path class="cls-2" d="M23.17,24.18s.04.03.05.05c-.02-.02-.04-.03-.05-.05Z"/>
          <path class="cls-2" d="M23.13,24.15s.02.02.03.03c-.01,0-.02-.02-.03-.03Z"/>
          <path class="cls-2" d="M23.09,24.11s.03.03.05.04c-.02-.01-.03-.03-.05-.04Z"/>
          <path d="M22.96,22.8c.06-.04.11-.09.17-.14-.06.05-.12.1-.17.14Z"/>
          <path d="M22.83,22.9s-.08.05-.12.07c.04-.02.08-.05.12-.07Z"/>
          <path class="cls-2" d="M22.74,19.33v-.08s0,.05,0,.08Z"/>
          <path class="cls-2" d="M22.71,19.61s0-.06.01-.1c0,.03,0,.06-.01.1Z"/>
          <path d="M22.71,22.97s-.05.03-.08.04c.03,0,.05-.02.08-.04Z"/>
          <path class="cls-2" d="M22.64,20.1c0-.06.02-.13.03-.19,0,.06-.02.13-.03.19Z"/>
          <path class="cls-2" d="M22.58,20.44c.02-.1.04-.19.05-.29-.02.1-.03.19-.05.29Z"/>
          <path d="M22.54,23.03s.02,0,.03,0c0,0-.02,0-.03,0Z"/>
          <path class="cls-2" d="M22.52,20.75c.02-.1.05-.21.07-.31-.02.1-.04.21-.07.31Z"/>
          <path class="cls-2" d="M22.48,20.9c.01-.05.02-.1.04-.15-.01.05-.02.1-.04.15Z"/>
          <path class="cls-2" d="M22.44,21.05c-.03.1-.06.2-.09.3.03-.1.06-.2.09-.3Z"/>
          <path class="cls-2" d="M22.35,21.35c-.02.07-.05.14-.08.22.03-.07.05-.14.08-.22Z"/>
          <path class="cls-2" d="M22.27,21.56c-.03.09-.07.19-.11.28.04-.09.08-.18.11-.28Z"/>
          <path class="cls-2" d="M22.16,21.84c-.03.06-.05.12-.08.18.03-.06.05-.12.08-.18Z"/>
          <path class="cls-1" d="M21.51,26.4v.16s-.05.02-.07.02c-.52-.28-.73-.48-.92-.53h0s-.07-.03-.1-.03c-.02,0-.05,0-.09.03h0c-.19.04-.43.2-.93.54-.11,0-.17-.14-.03-.19,1.29-.87.9-.65,2.14.01Z"/>
          <path d="M21.51,26.61v.16c-.25.16-.8-.5-1.09-.55-.15,0-.79.52-.98.57-.13.02-.23-.13-.07-.19l.03-.02s.03,0,.04,0c.16-.04.66-.44.89-.54h0c.07-.01.13,0,.19,0h0c.28.13.7.58.92.53.02.01.04.02.07.04Z"/>
          <path class="cls-9" d="M21.39,14.38c.26.04.51.09.76.15-.25-.06-.5-.11-.76-.15Z"/>
          <path d="M21.44,26.57c-.23.04-.64-.4-.92-.53.19.06.41.25.92.53Z"/>
          <path class="cls-9" d="M21.05,14.33c.11.02.23.03.34.05-.11-.02-.22-.03-.34-.05Z"/>
          <path class="cls-2" d="M20.95,22.75s.05.06.07.08c-.02-.03-.05-.05-.07-.08Z"/>
          <path class="cls-2" d="M20.84,22.62s.05.06.07.09c-.02-.03-.05-.06-.07-.09Z"/>
          <path class="cls-9" d="M20.7,14.28c.07,0,.15.02.22.03-.07,0-.15-.02-.22-.03Z"/>
          <path class="cls-2" d="M20.71,22.42s.04.06.06.1c-.02-.03-.04-.06-.06-.1Z"/>
          <path class="cls-2" d="M20.62,22.28s.06.1.09.15c-.03-.05-.06-.1-.09-.15Z"/>
          <path class="cls-2" d="M20.42,26.01s.07.02.1.03c-.06-.02-.12-.02-.19,0,.04-.02.07-.03.09-.03Z"/>
          <path class="cls-9" d="M20.24,14.21c-.26.03-.52.06-.79.1-.08.01-.15.02-.23.04-.12.02-.23.04-.35.06-.35.07-.69.16-1.02.27-.07.02-.15.05-.22.08-.33.12-.64.27-.92.45l-.24-.59.48-1.32c1.17,0,2.2.63,3.29.92Z"/>
          <path d="M20.33,26.03c-.23.11-.73.5-.89.54-.01,0-.03,0-.04,0,.5-.34.75-.51.93-.54Z"/>
          <path d="M19.19,24.7c.05.08.08.17.07.26-.1.14-.27-.02-.32-.12-.47.33-1.3.51-1.85.37-.47-.22-.95-.88-1.24-1.5-.03-.06-.05-.11-.08-.17-.01-.03-.02-.06-.03-.08-.08-.19-.13-.37-.16-.53,0,0,.02-.01.02-.02.01-.01.03-.02.04-.03,0,0,.01,0,.02-.01.01,0,.03-.01.04-.01,0,0,0,0,0,0,.02,0,.04,0,.06,0,.04,0,.08.03.12.07.08.08.15.2.24.32.02.02.03.04.05.05.02.02.03.03.05.05t0,0c.11.09.25.15.45.1,0,0,0,0,0,0-.07-.16-.32-.58.04-.52.06.62.4.52.86.71l-.06-.37c.21-.22.26.33.41.49.05.05.12.1.21.15.01,0,.03.02.05.03.02.02.05.03.08.05.02,0,.03.02.05.03.08.05.17.1.25.16.05.03.09.06.14.09,0,0,.02.01.03.02.04.03.07.05.11.08h0s.05.04.08.06c.06.05.11.09.16.14,0,0,.01.01.02.02.02.02.04.04.05.06.02.02.03.04.04.06ZM17.78,24.12c.15-.24-.58-.46-.68-.44-.21.06.1,1.05.34.91-.1-.31.28-.38.34-.48Z"/>
          <path d="M19.1,24.58s-.01-.01-.02-.02c0,0,.01.01.02.02Z"/>
          <path d="M18.84,24.36s.05.04.08.06c-.02-.02-.05-.04-.08-.06Z"/>
          <path d="M18.73,24.28s.07.05.11.08c-.03-.03-.07-.05-.11-.08Z"/>
          <path d="M18.57,24.17s.09.06.14.09c-.05-.03-.09-.06-.14-.09Z"/>
          <path d="M16.45,22.16c-.27-.73,2.8.01,2.03.86-.11.03-.21.01-.31-.02-.05-.02-.1-.04-.14-.07-.05-.03-.09-.06-.14-.1,0,0,0,0,0,0-.08-.06-.16-.13-.25-.19t0,0s-.07-.05-.1-.08c0,0-.02-.01-.02-.02-.02-.02-.04-.03-.06-.05-.01-.01-.03-.02-.05-.03-.03-.02-.06-.04-.09-.06-.23-.14-.51-.25-.86-.24Z"/>
          <path d="M18.16,23c.1.04.2.05.31.02-.11.03-.21.01-.31-.02Z"/>
          <path class="cls-6" d="M17.1,23.68c.09-.02.83.2.68.44-.06.1-.44.17-.34.48-.23.13-.54-.86-.34-.91Z"/>
          <path class="cls-2" d="M17.67,18.4s.03-.09.04-.12c0,.03-.02.07-.04.12Z"/>
          <path class="cls-2" d="M17.62,18.5s.01-.04.02-.05c0,.02-.01.04-.02.05Z"/>
          <path class="cls-2" d="M17.6,18.56s-.03.08-.05.12c.02-.04.03-.08.05-.12Z"/>
          <path d="M17.44,22.49s.04.03.06.05c-.02-.02-.04-.03-.06-.05Z"/>
          <path class="cls-2" d="M17.37,19.09c.04-.09.08-.17.11-.25-.03.08-.07.16-.11.25Z"/>
          <path d="M17.3,22.39s.06.04.09.06c-.03-.02-.06-.04-.09-.06Z"/>
          <path d="M16.82,8.76c.5,1.41.54,3.09.18,4.26l-.17-.04c.47-1.99.16-4.4-1.22-5.79-.02-.02-.04-.04-.06-.06-.04-.04-.09-.08-.13-.12-.13-.12-.27-.22-.42-.32-.05-.03-.1-.06-.15-.09-.05-.03-.1-.06-.16-.09-.08-.04-.16-.08-.25-.12l.04-.16c.1.03.2.06.3.1.06.02.12.05.17.08.03.01.06.03.08.04.08.05.16.09.24.15.05.04.1.07.15.11.58.44,1.01,1.1,1.3,1.85.03.07.05.13.07.2Z"/>
          <path class="cls-2" d="M17.25,19.36c-.03.06-.06.12-.09.18.03-.06.06-.12.09-.18Z"/>
          <path d="M17.2,25.4c.03.14-.03.19-.12.19-.02,0-.05,0-.08,0-.06-.01-.12-.03-.17-.05-.03,0-.05-.02-.07-.03-.42-.15-1.13-.69-1.26-1.14,0-.1,0-.16.02-.18,0,0,0,0,0,0,.01,0,.03-.01.05,0,.02,0,.04.03.07.06.07.13.16.25.26.37.03.05.06.1.09.12.15.17.33.31.53.42.21.13.44.22.69.26Z"/>
          <path d="M17,25.57s.05,0,.08,0c-.02,0-.05,0-.08,0Z"/>
          <path class="cls-7" d="M15.61,7.19c1.38,1.39,1.69,3.8,1.22,5.79-.14.57-.34,1.11-.59,1.58l.23.75-1.39,1.11c-.16-.78-.91-1.47-.96-2.26,0-.08,0-.15.03-.23.09-.37.41-.69.58-1,.94-1.95.62-4.62-.29-6.53.09.04.17.08.25.12.05.03.11.06.16.09.05.03.1.06.15.09.15.1.29.2.42.32.04.04.09.08.13.12.02.02.04.04.06.06Z"/>
          <path d="M16.83,25.52c.05.02.11.04.17.05-.06-.01-.12-.03-.17-.05Z"/>
          <path d="M16.76,25.49s.05.02.07.03c-.03,0-.05-.02-.07-.03Z"/>
          <path d="M16.74,8.56c.03.07.05.13.07.2-.02-.07-.05-.13-.07-.2Z"/>
          <path class="cls-4" d="M16.6,27.85c.19,1.12.19,2.26,0,3.38-.09-.31-.18-.53-.27-.71-.01-.03-.03-.05-.04-.08-.08-.13-.16-.23-.24-.3-.04-.04-.09-.07-.13-.1h0s-.04-.02-.05-.03c0,0,0,0,0,0-.04-.02-.07-.04-.11-.06-.11-.05-.23-.09-.35-.15-.06-.03-.12-.06-.18-.11-.01,0-.02-.01-.03-.02-.02-.02-.04-.03-.06-.05-.11-.09-.22-.2-.33-.36-.16-.34-.33-1.44-.38-1.85,0-.09-.02-.18-.03-.28,0-.05-.01-.1-.02-.15,0-.03,0-.05-.01-.08-.02-.11-.03-.21-.05-.32,0-.03,0-.05,0-.08-.02-.15-.02-.3-.01-.43,0-.02,0-.04,0-.06,0-.06.02-.11.03-.16,0-.03.02-.07.03-.1.06.08.12.16.18.24.04.05.07.09.11.14.11.12.22.24.33.36.5.5,1.07.94,1.63,1.35Z"/>
          <path d="M16.59,31.93s.04-.03.06-.05c-.02.02-.04.04-.06.05Z"/>
          <path d="M16.51,25.14c.22.12.45.21.69.26-.25-.03-.48-.13-.69-.26Z"/>
          <path class="cls-2" d="M16.28,30.44s.03.05.04.08c-.01-.03-.03-.05-.04-.08Z"/>
          <path d="M15.97,30.47s.03.04.05.06c-.01-.02-.03-.04-.05-.06Z"/>
          <path d="M15.94,30.43s.02.02.03.04c-.01-.01-.02-.03-.03-.04Z"/>
          <path d="M15.77,23.54c.02.06.05.11.08.17-.03-.06-.05-.11-.08-.17Z"/>
          <path d="M15.76,22.85s-.04,0-.06,0c.02,0,.04,0,.06,0Z"/>
          <path d="M15.9,24.59c-.1-.12-.18-.24-.26-.37.08.09.18.25.26.37Z"/>
          <path d="M15.7,22.85s-.03,0-.04.01c.01,0,.03-.01.04-.01Z"/>
          <path d="M15.64,22.88s-.03.02-.04.03c.01-.01.03-.02.04-.03Z"/>
          <path d="M15.57,22.93c.03.16.09.34.16.53-.08-.19-.13-.37-.16-.53h0Z"/>
          <path d="M15.57,24.17s-.04,0-.05,0c.01-.01.03-.01.05,0Z"/>
          <path d="M15.56,33.96s-.07.06-.15.05c.06,0,.12-.02.15-.05Z"/>
          <path class="cls-2" d="M15.85,21.51c-.2.31-.42.61-.65.89.23-.28.45-.58.65-.89Z"/>
          <path d="M14.44,6.39c.91,1.92,1.23,4.58.29,6.53-.17.31-.49.64-.58,1l-.17-.04c.04-.16.11-.32.19-.48.16-.3.37-.61.57-.99.69-1.77.25-4.64-.62-6.27.12.02.25.04.36.08l-.04.16Z"/>
          <path class="cls-2" d="M15.4,29.8c-.06-.03-.12-.06-.18-.11.06.04.12.08.18.11Z"/>
          <path d="M15.56,33.78c-.12-.21-.24-.41-.34-.61.12.19.29.43.34.61Z"/>
          <path class="cls-2" d="M15.24,22.85s-.03.03-.04.05c.01-.01.03-.03.04-.05Z"/>
          <path class="cls-2" d="M15.19,29.67s-.04-.03-.06-.05c.02.02.04.03.06.05Z"/>
          <path class="cls-2" d="M15.2,16.77c-.08.08-.15.17-.23.25.07-.09.15-.17.23-.25Z"/>
          <path class="cls-2" d="M15.2,22.4c-.09.11-.19.22-.29.33.1-.11.19-.21.29-.33Z"/>
          <path class="cls-9" d="M15,30.9s-.03-.02-.05-.03c0,0-.02-.01-.03-.02-.03-.03-.07-.07-.11-.12-.01-.02-.03-.04-.04-.05-.01-.02-.03-.04-.04-.06,0,0-.01-.02-.02-.03-.01-.02-.03-.04-.05-.06h0s-.03-.04-.05-.06c-.03-.04-.06-.07-.09-.1,0,0-.01-.01-.02-.02-.08-.08-.15-.12-.21-.08,0,0,0,0,0,0,0,0,0,0,0,0-.03.03-.05.07-.06.15,0,.37.2,1.43.3,1.82,0,.06.04.18.11.33,0,0,0,0,0,0,.09.23.22.44.33.66h0c.04.09.05.14,0,.13-.19-.2-.38-.42-.55-.67-.07-.1-.14-.21-.21-.32,0,0-.01-.02-.02-.03-.02-.03-.04-.06-.06-.1-.07-.12-.13-.23-.2-.35-.02-.04-.04-.08-.07-.13-.04-.08-.08-.17-.12-.25,0,0,0,0,0,0-.08-.17-.16-.35-.23-.53,0,0,0,0,0,0-.03-.08-.06-.15-.09-.23-.08-.2-.15-.41-.22-.62-.03-.09-.06-.18-.08-.27-.05-.17-.1-.33-.15-.51-.03-.1-.05-.2-.08-.3-.03-.11-.05-.22-.08-.32-.02-.11-.05-.21-.07-.32,0,0,0,0,0,0-.03-.16-.07-.33-.1-.49,0,0,0,0,0,0-.3-1.62-.41-3.38-.33-5.07,0-.01,0-.03,0-.04,0-.14.01-.28.02-.42,0-.01,0-.03,0-.04.03-.44.08-.88.13-1.3,0-.02,0-.05,0-.07.01-.07.02-.14.03-.22,0-.02,0-.04,0-.06.01-.08.03-.16.04-.24.01-.07.02-.13.03-.19.01-.08.03-.16.04-.23.04-.2.08-.4.12-.59.02-.09.04-.18.07-.27.03-.14.07-.27.11-.4.03-.09.05-.17.08-.26h0c.03-.09.05-.17.08-.26.04-.13.09-.25.13-.37.18-.49.39-.94.62-1.34.04-.07.08-.13.12-.2.04-.07.08-.13.12-.19s.08-.12.13-.18c.04-.06.09-.12.13-.17.04-.06.09-.11.14-.16.06.01.13.12.2.26,0,.01.01.03.02.04,0,.01.01.02.02.04.08.19.15.41.19.54,0,.02.01.04.01.06,0,.01,0,.03,0,.04,0,.01,0,.02,0,.03-.01.05-.52.62-.61.75-1.66,2.35-1.68,5.42-.28,7.89-.09,1.9.36,3.85.97,5.65Z"/>
          <path class="cls-2" d="M14.92,30.85s.02.02.03.02c0,0-.02-.01-.03-.02Z"/>
          <path class="cls-2" d="M14.92,16.62s0-.02,0-.03c0,.01,0,.03,0,.03Z"/>
          <path class="cls-2" d="M14.94,33.25c-.12-.22-.24-.43-.33-.66.11.22.26.5.33.66Z"/>
          <path class="cls-2" d="M14.75,23.21c.07-.01.16-.06.25-.12-.09.07-.17.11-.25.12Z"/>
          <path class="cls-2" d="M14.97,17.02c-.11.13-.22.26-.32.4.1-.14.21-.27.32-.4Z"/>
          <path d="M14.56,30.9c.03.4.08.78.18,1.15-.1-.34-.16-.71-.18-1.15Z"/>
          <path class="cls-2" d="M14.54,23.14c.06.06.13.08.21.07-.08.01-.15,0-.21-.07Z"/>
          <path class="cls-2" d="M14.68,15.91s-.01-.03-.02-.04c0,.01.01.03.02.04Z"/>
          <path class="cls-2" d="M14.66,15.87c-.07-.14-.14-.25-.2-.26.06,0,.13.11.2.26Z"/>
          <path class="cls-2" d="M14.66,17.43c-.12.17-.24.34-.34.51.11-.18.22-.35.34-.51Z"/>
          <path class="cls-2" d="M14.33,15.78c-.04.06-.09.12-.13.17.04-.06.09-.12.13-.17Z"/>
          <path class="cls-2" d="M14.39,32.71c-.07-.1-.14-.21-.21-.32.07.11.14.21.21.32Z"/>
          <path class="cls-2" d="M14.21,23.79s0,.06,0,.08c0-.03,0-.06,0-.08Z"/>
          <path class="cls-2" d="M14.11,32.27s.04.07.06.1c-.02-.03-.04-.06-.06-.1Z"/>
          <path class="cls-2" d="M14.15,24.34s0-.02,0-.03c0,0,0,.02,0,.03Z"/>
          <path class="cls-2" d="M14.07,16.13c-.04.06-.08.13-.12.19.04-.07.08-.13.12-.19Z"/>
          <path d="M14.17,13.4c-.08.16-.15.32-.19.48-.04.17-.06.35-.03.55-.06-.39.05-.71.22-1.03Z"/>
          <path class="cls-2" d="M14.11,32.27c-.07-.11-.14-.23-.2-.35.07.12.13.24.2.35Z"/>
          <path class="cls-2" d="M13.84,31.79c-.04-.08-.08-.17-.12-.25.04.09.08.17.12.25Z"/>
          <path d="M13.57,32.84c.02-.09.03-.18.04-.27,0,.09-.02.18-.04.27Z"/>
          <path class="cls-2" d="M13.71,31.54c-.08-.17-.16-.35-.23-.53.08.18.15.36.23.53Z"/>
          <path class="cls-2" d="M13.48,31c-.03-.08-.06-.15-.09-.23.03.08.06.16.09.23Z"/>
          <path class="cls-2" d="M13.28,32.99c.09-.38.1-.76.04-1.15.05.39.04.77-.04,1.15Z"/>
          <path class="cls-9" d="M13.33,31.84c.05.39.04.77-.04,1.15-.02.1-.05.21-.09.31,0,.01,0,.03-.01.04-.05.13-.1.26-.17.39-.02.04-.04.08-.07.12,0,0,0,0,0,0-.03.06-.07.12-.11.19-.05.08-.11.17-.17.25-.07-.08-.15-.17-.23-.25-.66-.69-1.45-1.27-2.12-1.95-.06-.06-.12-.12-.18-.18-.1-.1-.19-.21-.28-.32-.04-.04-.07-.09-.1-.13-.05-.07-.1-.13-.15-.2-.03-.05-.06-.09-.09-.14-.03-.05-.06-.1-.09-.14-.13-.22-.24-.45-.33-.7-.67-1.75,1.06-3.21,1.59-4.71.21-.59.31-1.23.32-1.86.03.04.06.07.09.1,0,0,.01.01.02.02.01.01.03.02.04.03,0,0,.01,0,.02.01.01,0,.03.02.04.02s.03.01.04.02c.13.04.26-.01.46-.09l.32.62c.2,1.99.21,4,.82,5.93.06.13.12.26.17.39.06.16.12.31.16.46.06.2.1.4.13.59Z"/>
          <path class="cls-2" d="M13.82,16.52c-.23.4-.44.86-.62,1.34.18-.49.39-.94.62-1.34Z"/>
          <path class="cls-2" d="M13.07,18.24c-.03.08-.05.17-.08.26.03-.09.05-.17.08-.26Z"/>
          <path class="cls-2" d="M12.99,18.5c-.03.09-.05.17-.08.26.02-.09.05-.17.08-.26Z"/>
          <path class="cls-2" d="M12.8,19.16c-.02.09-.04.18-.07.27.02-.09.04-.18.07-.27Z"/>
          <path class="cls-9" d="M13.32,16.85c-.6,1.3-1.05,2.67-1.16,4.11l-1.08-.28c.47-1.41,1.27-2.71,2.24-3.83Z"/>
          <path d="M12.37,34.49v.03s0-.02,0-.03Z"/>
          <path d="M12.37,34.46v.03s0-.02,0-.03Z"/>
          <path d="M12.35,34.34s.01.06.02.09c0-.03,0-.06-.02-.09-.03-.04-.07-.07-.11-.11.04.04.07.07.11.11Z"/>
          <path class="cls-1" d="M12.08,21.25l-.07,1.91-.3.12-1.04-1.56c-.05-.14.18-.3.21-.48.02-.13-.02-.21-.11-.24l.05-.16,1.27.4Z"/>
          <path class="cls-9" d="M11.29,23.2l.23.35-.13.17c-.13-.13-.14-.35-.1-.52Z"/>
          <polygon class="cls-9" points="10.97 22.68 11.15 22.94 10.97 23.44 10.97 22.68"/>
          <path class="cls-1" d="M10.81,20.84l-.05.16s-.07,0-.11,0l-.12.42-.08.02-.52-.88.88.28Z"/>
          <path d="M10.65,22.46c.26,1.21.08,2.17-.27,3.01.35-.84.53-1.8.27-3.01,0-.04.01-.08.02-.12-.01.04-.03.08-.02.12Z"/>
          <path class="cls-2" d="M9.99,21.2l.3.46c-.29.35-.46-.46-.3-.46Z"/>
          <path d="M8.73,29.09c-.04.35-.03.71.07,1.1-.1-.39-.12-.75-.07-1.1Z"/>
        </g>
        <g>
          <path class="cls-4" d="M29.8,27.46c-.28-2.2-.7-3.6-.7-3.6,0,0-.44.46-.44,1.04,0,.8-.05.91-.07,1.75,0,0,0,.01,0,.02-.05.32-.18,1.74-.21,1.85-.32,1.11-.92,3.27-.92,3.27v.99c.07.85.71,1.56.71,1.56l.93-1.51c.93-1.51.98-3.18.7-5.37Z"/>
          <path class="cls-4" d="M12.98,30.65l-.43-1.7-.28-1.92-.22-2.57-.32-.62s-1.02,3.06-1.24,4.65c-.21,1.59,2.17,5.81,2.17,5.81l.37-.52c.19-.33.32-.7.36-1.09l.08-.84-.07-.14-.43-1.06Z"/>
          <polygon class="cls-4" points="28.52 20.21 28.66 20.96 29.31 20.79 28.02 18.01 27.51 16.89 28.27 19.11 28.52 20.21"/>
          <path class="cls-4" d="M11.33,20.74c.16.03.81.19.84.22.03.03.31-1.39.31-1.39l.21-.71.3-1.06.33-.95s-2.16,3.86-2,3.89Z"/>
          <path class="cls-4" d="M15.14,21.2l-.39-.24-.99,1.24-.4-1c-.03.09-.06.18-.09.27-.03.22-.04.49,0,.8.04.38.13.69.21.92.04.27.12.62.28.99.09.2.19.38.29.53l.14-.25c.05-.34.1-.7.14-1.06.04-.41.12-.62.14-.99l.3.47c.37-.36.64-.7.84-.96.44-.59.7-1.11.85-1.42.09-.17.15-.33.29-.63.05-.12.25-.56.49-1.15.34-.82.61-1.59.79-2.1l-2.89,4.58Z"/>
          <path class="cls-4" d="M21.32,20.48c-.05.16-.24.23-.38.13l-.42-.27c-.08-.05-.18-.06-.26-.02l-.51.22c-.16.07-.34-.02-.39-.18l-1.08-3.61-.25.83-.15.78.21,1.25.2,1.35.32.91.41.76.33.25.31-.18.49-.83.21-.21.25.12.48.7.42.42.29-.32.35-.57.26-.78.31-1.06.07-.92v-.45l.07-1.33-.3-.59-1.23,3.63Z"/>
          <path class="cls-4" d="M26.67,21.74l-.89-1.18-.56.4-2.48-4.43.48,1.42.98,2.32.91,1.64.91.96s-.03-.37.01-.54c.07-.28.27-.12.27-.12l.14.42.16,1.4.1.27.47-1.27.14-1.35-.06-.6-.58.64Z"/>
          <path class="cls-4" d="M18.23,14.6c.76-.23,1.44-.34,2-.39-2.29-.78-3.78.4-3.78.4l.24.59c.42-.21.93-.43,1.53-.61Z"/>
          <path class="cls-4" d="M20.7,14.28l.87.13s.74.16.79.18c.05.01.59.19.59.19l.26.1.35.16.43.22.12.08.03-.16.05-.16.04-.1.06-.13.03-.08c-.38-.19-.93-.41-1.62-.53-.89-.15-1.64-.06-2.11.04v.04s.11.03.11.03Z"/>
        </g>
      </g>
    </g>
  </g>
</svg>