<?xml version="1.0" encoding="UTF-8"?>
<svg id="Layer_2" data-name="Layer 2" xmlns="http://www.w3.org/2000/svg" viewBox="0 0 96.44 12.38">
  <defs>
    <style>
      .cls-1 {
        fill: #f9f9f9;
      }
    </style>
  </defs>
  <g id="Layer_1-2" data-name="Layer 1">
    <g>
      <g>
        <path class="cls-1" d="M67.16.99l-1.94,11.03c-.02.13-.13.23-.26.23h-1.44c-.13,0-.25-.1-.26-.23l-1.94-11.03c-.02-.13.07-.23.2-.23h1.77c.13,0,.23.1.25.23l.67,6.96h.07l.67-6.96c.02-.13.11-.23.25-.23h1.77c.13,0,.21.1.2.23Z"/>
        <path class="cls-1" d="M69.62,3.52c.03-.24.13-.46.26-.66.06-.11.13-.21.22-.3.07-.06.21-.15.31-.14.09.02.14.13.14.21v9.39c0,.13-.1.23-.23.23h-1.46c-.13,0-.23-.1-.23-.23V2.63c0-.16.15-.27.29-.19.15.09.28.21.38.36.11.16.19.34.27.52"/>
        <path class="cls-1" d="M77.67,2.63v9.39c0,.13-.1.23-.23.23h-1.05c-.13,0-.28-.1-.31-.21l-1.74-4.28v4.27c0,.13-.1.23-.23.23h-1.46c-.13,0-.23-.1-.23-.23V2.63c0-.13.1-.23.23-.23h1.08c.13,0,.28.1.31.21l1.71,4.78V2.63c0-.13.1-.23.23-.23h1.46c.13,0,.23.1.23.23Z"/>
        <path class="cls-1" d="M84.22,4.35v.98c0,.13-.1.26-.21.3l-1.49.23c-.11.03-.21-.03-.21-.16v-1.26c0-.21-.18-.39-.39-.39h-.13c-.21,0-.39.18-.39.39v5.78c0,.21.18.39.39.39h.13c.21,0,.39-.18.39-.39,0,0,0-1.97,0-1.97,0-.46.7.35.77.48.14.28.21.59.28.9.03-.33.18-.64.32-.95.07-.16.24-.48.4-.56.12-.06.15.37.15.45v1.72c0,1.13-.94,2.07-2.07,2.07h-.62c-1.13,0-2.07-.94-2.07-2.07v-5.94c0-1.13.94-2.07,2.07-2.07h.62c1.13,0,2.07.94,2.07,2.07Z"/>
        <path class="cls-1" d="M89.98,10.56v1.46c0,.13-.1.23-.23.23h-3.56c-.13,0-.23-.1-.23-.23V2.63c0-.13.1-.23.23-.23h3.56c.13,0,.23.1.23.23v1.46c0,.13-.1.23-.23.23h-1.87v1.87h1.63c.13,0,.23.1.23.23v1.46c0,.13-.1.23-.23.23h-1.63v2.22h1.87c.13,0,.23.1.23.23Z"/>
        <path class="cls-1" d="M96.44,4.35c0,.44.02.96-.12,1.37-.06.14-.2.17-.33.27-.14.09-.3.2-.37.25-.06.04-.06.04-.15,0-.26-.12-.71-.46-.88-.64-.05-.06-.08-.09-.08-.16,0-.23,0-.62,0-.84,0-.19.02-.26-.09-.41-.16-.2-.53-.21-.71-.03-.11.1-.13.28-.12.41,0,.17,0,.48,0,.68-.01.26.03.56.23.74.2.16.41.31.8.6.65.49,1.31.97,1.42,1.07.34.31.41.74.4,1.17,0,.43,0,1.11,0,1.57-.09,1.37-1.26,2.11-2.56,1.97-1.2.07-2.25-.95-2.2-2.13,0-.42.01-.69-.01-1.13-.02-.43-.1-1.39-.01-1.67.25,0,2.08,1.41,1.95,1.42,0,.06,0,.1,0,.18.02.47-.04,1.04.03,1.3.13.38.79.35.88-.04.03-.16,0-.19.01-.37-.03-.49.11-1.02-.25-1.39-.52-.41-1.22-.93-1.75-1.35-.43-.34-.55-.38-.74-.77-.13-.31-.09-.67-.1-1.03,0-.39,0-.75,0-1.09.02-1.15,1.04-2.08,2.2-2.01,1.31-.15,2.52.65,2.56,2.05v.02Z"/>
      </g>
      <g>
        <path class="cls-1" d="M5.85.23l-1.94,11.03c-.02.13-.13.23-.26.23h-1.44c-.13,0-.25-.1-.26-.23L0,.23c-.02-.13.07-.23.2-.23h1.77c.13,0,.23.1.25.23l.67,6.96h.07L3.63.23c.02-.13.11-.23.25-.23h1.77c.13,0,.21.1.2.23Z"/>
        <g>
          <path class="cls-1" d="M10.92,5.98l-1.17.44-.68,1.87-.68-1.87-1.24-.47-.7,5.31c-.02.13.07.23.2.23h1.49c.13,0,.23-.1.25-.23l.13-1.61h1.02l.13,1.61c.02.13.11.23.25.23h1.49c.13,0,.21-.1.2-.23l-.69-5.28Z"/>
          <path class="cls-1" d="M9.07,3.17l.68,1.87,1.1.41-.47-3.58c-.02-.13-.13-.23-.26-.23h-2.17c-.13,0-.25.1-.26.23l-.47,3.61,1.18-.44.68-1.87Z"/>
        </g>
        <path class="cls-1" d="M17.51,9.8v1.46c0,.13-.1.23-.23.23h-3.73c-.13,0-.23-.1-.23-.23V1.87c0-.13.1-.23.23-.23h1.46c.13,0,.23.1.23.23l-.34,8.01c0,.11.11.2.21.16l2.3-.84c.13,0,.09.47.09.6Z"/>
        <path class="cls-1" d="M23.23,9.8v1.46c0,.13-.1.23-.23.23h-3.56c-.13,0-.23-.1-.23-.23V1.87c0-.13.1-.23.23-.23h3.56c.13,0,.23.1.23.23v1.46c0,.13-.1.23-.23.23h-1.87v1.87h1.63c.13,0,.23.1.23.23v1.46c0,.13-.1.23-.23.23h-1.63v2.22h1.87c.13,0,.23.1.23.23Z"/>
        <path class="cls-1" d="M30.29,1.87v9.39c0,.13-.1.23-.23.23h-1.05c-.13,0-.28-.1-.31-.21l-1.74-4.28v4.27c0,.13-.1.23-.23.23h-1.46c-.13,0-.23-.1-.23-.23V1.87c0-.13.1-.23.23-.23h1.08c.13,0,.28.1.31.21l1.71,4.78V1.87c0-.13.1-.23.23-.23h1.46c.13,0,.23.1.23.23Z"/>
        <path class="cls-1" d="M36.68,1.87v1.46c0,.13-.1,1.27-.23,1.27l-1.17-1.04v7.7c0,.13-.1.23-.23.23h-1.46c-.11,0-.23-.1-.23-.23V3.56l-1.15,1.27c-.13,0-.23-1.37-.23-1.5v-1.46c0-.13.1-.23.23-.23h4.24c.13,0,.23.1.23.23Z"/>
        <path class="cls-1" d="M47.42,1.87v9.39c0,.13-.1.23-.23.23h-1.05c-.13,0-.28-.1-.31-.21l-1.74-4.28v4.27c0,.13-.1.23-.23.23h-1.46c-.13,0-.23-.1-.23-.23V1.87c0-.13.1-.23.23-.23h1.08c.13,0,.28.1.31.21l1.71,4.78V1.87c0-.13.1-.23.23-.23h1.46c.13,0,.23.1.23.23Z"/>
        <g>
          <path class="cls-1" d="M53.55,6.01l-1.17.44-.68,1.87-.68-1.87-1.24-.47-.7,5.31c-.02.13.07.23.2.23h1.49c.13,0,.23-.1.25-.23l.13-1.61h1.02l.13,1.61c.02.13.11.23.25.23h1.49c.13,0,.21-.1.2-.23l-.69-5.28Z"/>
          <path class="cls-1" d="M51.7,3.2l.68,1.87,1.1.41-.47-3.58c-.02-.13-.13-.23-.26-.23h-2.17c-.13,0-.25.1-.26.23l-.47,3.61,1.18-.44.68-1.87Z"/>
        </g>
        <path class="cls-1" d="M39.3,2.73c.03-.24.13-.46.26-.66.06-.11.13-.21.22-.3.07-.06.21-.15.31-.14.09.02.14.13.14.21v9.39c0,.13-.1.23-.23.23h-1.46c-.13,0-.23-.1-.23-.23V1.84c0-.16.15-.27.29-.19.15.09.28.21.38.36.11.16.19.34.27.52"/>
      </g>
    </g>
  </g>
</svg>